<svg xmlns="http://www.w3.org/2000/svg" width="390" height="720" viewBox="0 0 390 720">
    <rect width="390" height="720" fill="#e8e8e8"/>
    <rect x="17" y="10" width="356" height="700" rx="48" fill="#111"/>
    <rect x="25" y="18" width="340" height="684" rx="40" fill="#f7f7f7"/>
    <rect x="145" y="27" width="100" height="26" rx="13" fill="#111"/>
    <text x="48" y="48" font-family="Inter, Arial, sans-serif" font-size="14" font-weight="700" fill="#171717" text-anchor="start">9:41</text>
    
    <rect x="42" y="68" width="306" height="44" rx="14" fill="#e5e5e5"/>
    <text x="195" y="96" font-family="Inter, Arial, sans-serif" font-size="14" font-weight="500" fill="#171717" text-anchor="middle">leoncheng.dev/sub-wait</text>
    <g transform="translate(154 150) scale(1.28)">
    <rect width="64" height="64" rx="14" fill="#111"/>
    <circle cx="24" cy="27" r="13" fill="#6d28d9"/>
    <text x="24" y="33" font-family="Inter, Arial, sans-serif" font-size="17" font-weight="800" fill="#fff" text-anchor="middle">S</text>
    <circle cx="44" cy="27" r="13" fill="#d9a514"/>
    <text x="44" y="33" font-family="Inter, Arial, sans-serif" font-size="17" font-weight="800" fill="#111" text-anchor="middle">W</text>
    <rect x="12" y="46" width="26" height="6" rx="3" fill="#fff"/>
    <rect x="42" y="46" width="10" height="6" rx="3" fill="#fff" opacity=".4"/>
  </g>
    <text x="195" y="262" font-family="Inter, Arial, sans-serif" font-size="31" font-weight="800" fill="#171717" text-anchor="middle">Sub-Wait</text>
    <text x="195" y="292" font-family="Inter, Arial, sans-serif" font-size="15" font-weight="500" fill="#666" text-anchor="middle">Live NYC subway arrivals</text>
    <rect x="48" y="326" width="294" height="46" rx="23" fill="#fff" stroke="#bbb"/>
    <text x="72" y="355" font-family="Inter, Arial, sans-serif" font-size="15" font-weight="500" fill="#777" text-anchor="start">Search stations…</text>
    <text x="48" y="420" font-family="Inter, Arial, sans-serif" font-size="19" font-weight="800" fill="#171717" text-anchor="start">Nearby</text>
    <rect x="48" y="440" width="294" height="92" rx="12" fill="#fff" stroke="#bbb" stroke-dasharray="5 4"/>
    <rect x="78" y="471" width="132" height="36" rx="18" fill="#111"/>
    <text x="144" y="494" font-family="Inter, Arial, sans-serif" font-size="13" font-weight="700" fill="#fff" text-anchor="middle">Use my location</text>
    <rect x="38" y="615" width="314" height="70" rx="22" fill="#fff" stroke="#d0d0d0"/>
    <rect x="164" y="623" width="62" height="54" rx="17" fill="#eef4f8" stroke="#111" stroke-width="4"/>
    <path d="M195 658V635M195 635l-9 9M195 635l9 9" fill="none" stroke="#1769aa" stroke-width="3" stroke-linecap="round" stroke-linejoin="round"/>
    <rect x="181" y="650" width="28" height="20" rx="4" fill="none" stroke="#1769aa" stroke-width="3"/>
    <circle cx="329" cy="599" r="27" fill="#111" stroke="#ff6319" stroke-width="7"/>
    <text x="329" y="606" font-family="Inter, Arial, sans-serif" font-size="21" font-weight="800" fill="#fff" text-anchor="middle">1</text>
  
  </svg>