<svg width="140" height="156" viewBox="0 0 140 156" fill="none" xmlns="http://www.w3.org/2000/svg">
<path d="M131.226 62.9915C133.845 62.1167 135.277 59.2745 134.204 56.7303C129.039 44.4892 120.226 34.0838 108.911 26.9703C96.1791 18.9668 81.0665 15.6254 66.1476 17.5154C51.2288 19.4054 37.4268 26.4098 27.0933 37.3352C16.7599 48.2606 10.5344 62.431 9.47749 77.4319C8.42063 92.4328 12.5978 107.336 21.2973 119.602C29.9969 131.869 42.6804 140.739 57.1869 144.702C71.6934 148.665 87.1252 147.476 100.853 141.337C113.055 135.88 123.239 126.813 130.069 115.417C131.489 113.048 130.469 110.033 127.999 108.8L85.1168 87.3917C81.1313 85.4021 81.541 79.587 85.7661 78.1758L131.226 62.9915Z" fill="#0A1637" stroke="#F6623B" stroke-width="19" stroke-miterlimit="1"/>
<circle cx="74.3168" cy="82" r="65" fill="#0A1637"/>
<path d="M118.541 123.92C114.359 123.92 109.623 123.152 104.333 121.616C99.1274 120.165 93.7088 118.331 88.0768 116.112C82.5301 113.893 77.1541 111.589 71.9488 109.2C66.7434 106.896 62.0928 104.891 57.9968 103.184C54.1568 107.365 49.7194 110.821 44.6848 113.552C39.6501 116.368 33.8901 117.776 27.4048 117.776C21.1754 117.776 16.5248 116.539 13.4528 114.064C10.3808 111.589 8.84477 108.773 8.84477 105.616C8.84477 103.397 9.61277 101.264 11.1488 99.216C12.7701 97.0827 15.1594 95.3333 18.3168 93.968C21.4741 92.6027 25.3994 91.92 30.0928 91.92C34.9568 91.92 39.5648 92.5173 43.9168 93.712C48.2688 94.8213 52.5354 96.1867 56.7168 97.808C58.9354 95.0773 61.0261 92.0907 62.9888 88.848C64.9514 85.52 66.8288 82.1493 68.6208 78.736C65.8048 78.992 62.9461 79.12 60.0448 79.12C54.0714 79.12 47.9274 78.48 41.6128 77.2C36.4074 76.0907 32.4394 74.128 29.7088 71.312C27.0634 68.4107 25.7408 65.296 25.7408 61.968C25.7408 58.0427 27.5754 54.288 31.2448 50.704C34.9141 47.0347 40.5034 44.5173 48.0128 43.152H48.5248C49.2074 43.152 49.7621 43.408 50.1888 43.92C50.7008 44.3467 50.9568 44.8587 50.9568 45.456C50.9568 46.5653 50.3168 47.248 49.0368 47.504C42.4661 48.6987 37.7301 50.6187 34.8288 53.264C32.0128 55.824 30.6048 58.4693 30.6048 61.2C30.6048 63.8453 31.6714 66.2773 33.8048 68.496C36.0234 70.6293 38.9674 72.0373 42.6368 72.72C48.6954 74 54.5834 74.64 60.3008 74.64C63.9701 74.64 67.5114 74.384 70.9248 73.872C73.2288 69.008 75.4901 64.1867 77.7088 59.408C79.9274 54.6293 82.1888 50.192 84.4928 46.096C86.8821 41.9147 89.4421 38.3733 92.1728 35.472C95.0741 32.4853 97.9328 30.3093 100.749 28.944C103.565 27.5787 106.167 26.896 108.557 26.896C112.141 26.896 115.085 28.1333 117.389 30.608C119.778 32.9973 120.973 36.0693 120.973 39.824C120.973 42.4693 120.29 45.2853 118.925 48.272C117.559 51.2587 115.383 54.288 112.397 57.36C106.935 62.992 100.962 67.5147 94.4768 70.928C88.0768 74.256 81.3354 76.56 74.2528 77.84C73.6554 79.12 73.0581 80.3573 72.4608 81.552C71.9488 82.6613 71.3941 83.7707 70.7968 84.88C69.4314 87.3547 67.9381 89.872 66.3168 92.432C64.6954 94.9067 62.9461 97.3387 61.0688 99.728C63.8848 101.008 66.7008 102.331 69.5168 103.696C72.4181 104.976 75.3621 106.213 78.3488 107.408C80.5674 108.261 83.3408 109.371 86.6688 110.736C89.9968 112.101 93.5381 113.467 97.2928 114.832C101.133 116.197 104.887 117.307 108.557 118.16C112.311 119.099 115.639 119.568 118.541 119.568C119.906 119.568 121.101 119.44 122.125 119.184C122.295 119.184 122.423 119.141 122.509 119.056C122.594 119.056 122.679 119.056 122.765 119.056C123.447 119.056 123.959 119.312 124.301 119.824C124.727 120.336 124.941 120.891 124.941 121.488C124.941 122.597 124.343 123.28 123.149 123.536C121.783 123.792 120.247 123.92 118.541 123.92ZM95.6288 38.544C93.0688 41.2747 90.6794 44.56 88.4608 48.4C86.2421 52.1547 84.1514 56.1653 82.1888 60.432C80.2261 64.6133 78.3488 68.752 76.5568 72.848C82.5301 71.3973 88.2474 69.1787 93.7088 66.192C99.1701 63.12 104.247 59.1947 108.941 54.416C111.501 51.7707 113.335 49.2107 114.445 46.736C115.554 44.176 116.109 41.872 116.109 39.824C116.109 37.3493 115.383 35.344 113.933 33.808C112.567 32.1867 110.733 31.376 108.429 31.376C106.637 31.376 104.631 31.9733 102.413 33.168C100.279 34.2773 98.0181 36.0693 95.6288 38.544ZM13.5808 105.616C13.5808 107.579 14.6901 109.328 16.9088 110.864C19.2128 112.485 22.7114 113.296 27.4048 113.296C32.8661 113.296 37.7301 112.187 41.9968 109.968C46.3488 107.835 50.2314 104.976 53.6448 101.392H53.5168C49.7621 99.9413 45.9221 98.7467 41.9968 97.808C38.0714 96.784 34.1034 96.272 30.0928 96.272C24.7168 96.272 20.6208 97.2533 17.8048 99.216C14.9888 101.179 13.5808 103.312 13.5808 105.616Z" fill="#ED6538"/>
<path d="M75.9639 59.6613C76.0992 59.37 76.2345 59.0784 76.37 58.7864C78.4475 54.3088 80.7055 49.8094 83.199 45.3683L83.204 45.3595C85.4023 41.5121 87.9624 37.776 91.0854 34.4486L91.1017 34.4315C93.6883 31.7775 96.6045 29.3026 100.095 27.5955C102.66 26.3565 105.507 25.4031 108.557 25.396C112.166 25.3204 116.04 26.8404 118.484 29.5879L118.447 29.5495C121.214 32.2243 122.523 36.2073 122.459 39.824C122.453 43.0673 121.525 46.1326 120.262 48.8831C120.243 48.9237 120.224 48.9642 120.205 49.0048C118.753 51.9157 118.664 51.5919 118.194 52.3592C116.81 54.3805 115.953 55.5721 114.777 56.8928C114.329 57.3891 113.872 57.8725 113.409 58.3444C108.002 63.859 102.113 68.4027 95.3194 71.9805C95.2429 72.0207 95.1674 72.0601 95.093 72.0988C87.6759 75.6624 91.0743 73.6187 88.3603 74.7205C82.9042 76.6243 87.6503 75.2859 85.5414 76.1523C81.9443 77.3983 78.228 78.3538 74.4641 79.0096L75.3298 78.3426C74.7367 79.5934 74.1275 80.8372 73.5001 82.0716L73.5158 82.0389C72.9776 83.1854 72.4032 84.3124 71.7977 85.419L71.7922 85.4292C71.6949 85.6028 71.5971 85.7763 71.499 85.9494C71.5918 85.7733 71.6843 85.5969 71.7763 85.4204L71.7818 85.4104C72.3525 84.2886 72.8919 83.149 73.3988 81.9849L73.3848 82.014C73.4571 81.8612 73.5291 81.7081 73.601 81.5548C73.527 81.703 73.4508 81.8547 73.3731 82.0082L73.3869 81.9794C72.7315 83.3934 71.9051 84.9165 71.6382 85.3331C71.5394 85.4866 71.5174 85.4977 71.5971 85.3216C71.706 85.0733 71.9967 84.4937 72.5011 83.4217C72.1669 84.0511 71.8346 84.6452 71.4851 85.2506C71.3027 85.5596 71.1209 85.8651 70.9328 86.1799C70.9356 86.5248 68.3626 90.9163 68.1744 91.347C68.0094 91.7913 69.4806 89.3345 69.4727 89.3502C69.4712 89.437 68.5053 91.0762 67.2533 93.0252L67.2441 93.0395C65.3137 95.993 62.5492 99.5229 62.2216 99.9148C62.078 100.094 61.9597 100.237 61.8621 100.351L61.4863 98.8095C62.6542 99.4012 61.3193 98.9528 62.8708 99.6521C65.8368 101.005 64.0334 99.7399 67.8083 102.08C68.8099 102.45 69.2416 102.651 69.8699 102.968L69.8435 102.956C70.2574 103.146 70.7563 103.383 71.555 103.734C71.8217 103.851 71.6515 103.675 71.7701 103.723C74.874 104.978 72.4404 104.126 72.4524 104.141C72.6663 104.414 76.0093 105.741 76.7069 106.035C77.3412 106.309 77.9641 106.576 78.5779 106.835C81.5073 108.032 84.1845 109.179 86.8402 110.318C90.213 111.765 93.5874 113.115 97.4008 114.535C98.6527 114.99 99.9588 115.44 101.335 115.879C102.703 116.324 105.966 117.25 108.63 117.846C109.976 118.178 111.163 118.42 111.852 118.558C113.876 118.945 112.768 118.867 113.828 119.087C115.143 119.053 116.382 119.152 118.541 119.223C119.264 119.24 120.093 119.244 121.053 119.146C121.5 119.009 121.776 118.919 122.04 118.846L122.125 118.835C122.217 118.833 122.264 118.807 122.262 118.809L122.362 118.707L122.509 118.707C122.589 118.708 122.673 118.71 122.765 118.713C123.169 118.736 123.958 118.769 124.568 119.646L124.548 119.618C124.663 119.755 124.78 119.912 124.889 120.095C125.111 120.463 125.288 120.95 125.299 121.488C125.316 121.987 125.21 122.605 124.802 123.094C124.399 123.584 123.804 123.844 123.243 123.976L123.232 123.979C121.58 124.332 119.854 124.424 118.541 124.317C121.048 124.288 121.22 124.194 123.201 123.817C123.58 123.72 124.035 123.585 124.476 123.207C124.659 123.07 125.22 122.441 125.185 121.488C125.193 120.903 124.948 120.213 124.481 119.674L124.496 119.694C124.154 119.14 123.425 118.805 122.765 118.834C122.68 118.835 122.594 118.836 122.509 118.836L122.417 118.837L122.353 118.901C122.32 118.939 122.236 118.968 122.125 118.968L122.072 118.974C120.839 119.295 119.557 119.38 118.541 119.403C117.127 119.431 116.212 119.381 116.47 119.469C116.671 119.534 117.594 119.601 118.541 119.593C119.642 119.595 120.763 119.435 120.841 119.431C121.581 119.414 120.166 119.805 118.541 119.792C118.263 119.792 117.98 119.784 117.703 119.769C117.962 119.764 118.25 119.756 118.541 119.743C118.779 119.732 119.019 119.717 119.246 119.699C118.985 119.699 118.751 119.695 118.541 119.691C115.362 119.53 117.686 120.13 114.727 119.396C114.341 119.288 114.501 119.248 113.865 119.096C113.728 119.104 114.51 119.278 113.827 119.195C113.129 119.114 111.842 118.757 111.629 118.819C111.305 118.928 114.186 119.356 114.406 119.367C114.408 119.366 114.411 119.366 114.413 119.365C116.327 119.688 112.308 119.179 112.121 119.116C110.872 118.974 111.696 119.224 109.835 118.901C109.498 118.839 109 118.731 108.448 118.596C107.264 118.331 105.82 117.947 105.153 117.775C104.181 117.526 105.669 118.005 105.013 117.843C104.357 117.681 103.563 117.4 102.798 117.192C102.47 117.104 102.464 117.185 102.306 117.14C100.612 116.654 101.764 116.838 100.24 116.364C99.2518 116.065 95.9235 115.059 98.1693 115.892C97.7928 115.768 97.4202 115.643 97.0494 115.516C96.3426 115.269 95.6465 115.022 94.9422 114.769C95.6085 115.042 96.3013 115.314 96.9519 115.58C94.9473 114.808 93.9898 114.593 92.7263 114.125C91.4631 113.655 90.3959 113.066 88.9888 112.594C85.9823 111.588 93.3018 114.394 94.2115 114.736C94.5625 114.881 93.1538 114.49 92.9429 114.413C92.0052 114.075 90.9388 113.565 90.222 113.289C88.6729 112.692 87.4747 112.262 86.233 111.798C85.4229 111.496 84.5924 111.183 83.632 110.805C81.8036 110.084 79.8752 109.331 77.8953 108.587L77.8796 108.581C74.9485 107.435 71.9297 106.193 68.9804 104.912L68.937 104.892C66.0446 103.51 63.1802 102.186 60.4994 100.981L58.9017 100.245L59.9868 98.8778C60.6657 98.0064 61.3124 97.1493 61.9234 96.3156C63.4657 94.2065 64.5073 92.8172 65.2525 91.7347L65.2419 91.7513C65.3766 91.5482 65.5009 91.3561 65.616 91.1715C67.3313 88.391 67.4295 87.9836 68.8388 85.5143C69.0746 85.0959 69.3204 84.6576 69.5722 84.2044L69.5654 84.2169C70.1161 83.2019 70.6805 82.1031 71.2136 80.9764L71.2322 80.9377C71.8592 79.7136 72.4776 78.4664 73.049 77.2782L73.3456 76.6506L74.0165 76.5327C75.648 76.2584 77.1517 75.9431 78.3535 75.6547C80.7162 75.0935 82.774 74.3099 83.3699 74.1099C86.7791 72.9776 90.3965 71.463 93.8228 69.6704C98.7305 67.0955 103.163 63.8626 106.397 61.0626C108.975 58.826 110.187 57.7364 110.69 57.2403C111.001 56.9258 111.248 56.6662 111.454 56.446C112.637 55.1516 112.398 55.3192 113.739 53.7475C114.566 52.7413 114.781 52.6005 114.892 52.4648C115.824 51.2465 115.869 50.9092 116.479 49.8999C116.907 49.1741 117.297 48.4355 117.64 47.6846C118.804 45.1394 119.576 42.4746 119.594 39.824C119.635 36.8484 118.74 33.9661 116.725 31.8355C116.581 31.6807 116.516 31.5973 116.468 31.5292L116.435 31.4957C116.381 31.414 116.351 31.3564 116.236 31.242C115.296 30.372 115.685 30.8204 114.63 30.043C112.919 28.8686 110.814 28.2824 108.557 28.2816C107.87 28.2786 107.17 28.3393 106.466 28.4564C106.173 28.5084 106.026 28.4461 105.353 28.608C104.682 28.7804 104.196 28.9932 103.165 29.3801C102.55 29.615 101.941 29.8752 101.337 30.1581C99.3385 31.0967 97.4329 32.3694 95.6036 33.9524C95.2109 34.2929 94.7962 34.7936 94.2326 35.3337C93.891 35.6611 93.5206 36.0233 93.1377 36.4094L93.1524 36.394C91.5771 38.0155 89.8672 40.1224 88.8854 41.523C87.6771 43.2281 86.5922 44.9671 85.5935 46.725C83.2635 50.8967 81.1995 55.0367 79.2079 59.2873C79.1008 59.5158 78.9945 59.7385 78.8893 59.9561C78.3352 61.102 77.814 62.0733 77.5201 62.6997C76.7308 64.381 77.3991 63.1464 76.6029 64.8514C75.1107 68.0443 73.6071 71.2351 72.093 74.4254L71.7922 75.0523L71.1165 75.1503C67.5363 75.6847 63.9166 75.9262 60.3008 75.9222C54.2809 75.9166 48.2691 75.2078 42.3748 73.9598L42.405 73.9658C39.9023 73.5 37.395 72.6494 35.1788 71.2C34.3988 70.6905 33.635 70.0946 32.9226 69.4135L32.8873 69.3782C30.8956 67.3829 29.2506 64.3672 29.2895 61.2C29.2598 57.5857 31.4327 54.6577 33.4274 52.7522C33.6074 52.5793 33.7761 52.4245 33.9364 52.2824C35.5283 50.9366 36.0717 50.7562 37.5157 49.9342C40.4205 48.4725 40.9418 48.1655 44.1728 47.1955C45.6217 46.792 47.2115 46.4836 48.8056 46.2327L48.7834 46.237C49.1589 46.1781 49.4402 46.0515 49.5444 45.9536C49.6448 45.8631 49.7092 45.7587 49.7163 45.456C49.717 45.3748 49.7064 45.3127 49.6875 45.2561C49.648 45.1378 49.5542 45.0136 49.3864 44.8828L49.2259 44.7224C48.9837 44.4736 48.8486 44.4533 48.5248 44.4624C48.355 44.4687 48.1849 44.4751 48.0128 44.4815L48.2506 44.4601C47.316 44.6688 46.3176 44.9018 44.9532 45.2492C42.5374 45.8472 39.2341 46.9155 36.9218 48.2182C35.1875 49.1706 33.5857 50.3201 32.2289 51.6881L32.2173 51.6996C29.3006 54.5376 27.1215 58.1351 27.1731 61.968C27.1539 65.0539 28.5974 67.9711 30.7849 70.3308L30.7543 70.2982C33.6087 73.2345 37.7111 74.8662 41.9197 75.7599L41.9053 75.7569C47.8719 76.9638 53.9473 77.6489 60.0448 77.6607C62.86 77.6664 65.6786 77.5514 68.4907 77.3053L71.1268 77.0765L69.8928 79.4038C68.8978 81.284 67.8748 83.153 66.8239 85.0103C65.977 86.5071 65.0982 88.0264 64.1903 89.5566L64.1822 89.5703C62.2913 92.6772 60.1557 95.7629 57.7742 98.6671L57.1408 99.4389L56.2242 99.0783C52.3956 97.5728 48.4797 96.2738 44.6309 95.192C43.9679 95.007 44.655 95.0936 43.6373 94.8083L43.6173 94.803C43.3509 94.7239 42.9645 94.6179 42.3986 94.4849C40.9525 94.1561 38.9091 93.7969 35.5014 93.4534C33.7163 93.2795 31.9102 93.1949 30.0928 93.1939C26.2349 93.1982 22.3021 93.6294 18.8114 95.1118C16.203 96.2262 13.7703 97.781 12.1099 99.9465C10.8289 101.621 10.0174 103.582 10.0183 105.616C9.95212 108.565 11.7231 111.244 14.1608 113.185C17.6921 116.012 22.7024 116.662 27.4048 116.681C29.4261 116.681 31.4332 116.539 33.4023 116.23C37.1585 115.646 40.8185 114.421 44.1161 112.535L44.1294 112.528C48.9714 109.859 53.3513 106.377 57.0207 102.288L57.6568 101.602L58.5065 101.961C63.2402 103.879 67.9211 105.859 72.539 107.867L72.5571 107.875C77.9376 110.302 83.3158 112.577 88.6288 114.732C94.0133 116.883 99.3756 118.797 104.666 120.42L104.679 120.424C109.069 121.819 113.462 122.86 117.805 123.19C119.131 123.275 118.415 123.621 117.604 123.701C116.856 123.61 116.172 123.488 115.401 123.343C114.386 123.664 114.547 123.669 110.936 123.026C108.722 122.578 110.458 123.104 109.265 122.916C108.458 122.79 106.112 122.315 104.28 121.797C102.593 121.349 101.32 120.936 102.009 120.999C101.558 120.917 101.142 120.841 100.702 120.758C96.3317 119.456 92.1174 118.016 87.9453 116.446C87.2433 116.177 86.5435 115.907 85.8438 115.635C85.0051 115.309 84.9324 115.376 84.0673 115.035C81.7444 114.117 79.9415 113.288 77.5787 112.269C76.2961 111.713 76.0759 111.731 74.4064 110.978C73.1014 110.385 72.8767 110.187 71.7207 109.697C71.405 109.568 71.0127 109.416 70.5043 109.228C71.9197 110.041 65.3449 107.009 62.9724 106.014C62.6282 105.866 59.7502 104.811 58.255 104.169C58.0773 104.092 57.8868 104.009 57.6891 103.922L58.586 103.725C57.4606 104.91 55.8394 106.433 54.1556 107.941C53.2584 108.743 52.7673 109.3 51.7345 110.094C51.0065 110.65 50.0499 111.203 49.0838 111.837C48.1279 112.486 46.0183 113.837 45.6106 114.051C45.3638 114.189 45.2037 114.274 45.104 114.325L45.114 114.319C44.8215 114.472 45.0458 114.321 45.0899 114.276L45.0805 114.282C45.0904 114.272 45.0913 114.267 45.0753 114.272L45.0847 114.267C45.0533 114.277 44.9579 114.326 44.7383 114.445C39.8953 117.144 33.4825 118.502 28.0915 118.572C27.428 118.586 28.3478 118.665 28.2602 118.669C27.9408 118.683 27.6593 118.691 27.4048 118.697C24.0601 118.713 26.0662 118.639 24.9376 118.521C24.3508 118.45 21.8916 118.288 19.6011 117.748C17.2999 117.254 15.2543 116.257 15.1935 116.303C15.0313 116.035 13.3384 115.153 12.8925 114.76C12.881 114.751 12.8703 114.742 12.8604 114.735C11.3306 113.446 11.7158 113.606 10.4097 112.156C9.94894 111.596 10.7296 112.778 10.2492 112.164C9.0961 110.621 8.34368 108.895 8.15185 106.323C8.13513 106.042 8.11449 105.848 8.09637 105.616C8.07704 105.335 8.05392 104.995 8.12578 104.388C8.17357 103.83 8.51536 102.415 8.94582 101.481C9.36308 100.546 9.66971 100.003 9.0962 100.908C9.64671 99.9215 10.0984 99.3155 10.5248 98.748C11.1907 97.9116 11.8056 97.1302 13.3093 95.9458C13.9533 95.4554 14.8658 94.9546 16.3406 94.1303C16.8422 93.8575 16.7692 93.7435 17.552 93.3811C17.6957 93.3158 17.8373 93.2538 17.9816 93.1929C19.6664 92.4903 21.3959 92.0906 23.644 91.7081C25.7346 91.3592 27.9045 91.1969 30.0928 91.1801C32.6877 91.1596 35.3242 91.3119 37.902 91.6957C39.1892 91.8997 38.8511 91.9601 40.7077 92.316C40.9544 92.3597 42.8247 92.6638 44.1077 93.0165L44.0949 93.0131C44.2294 93.0463 44.3577 93.0792 44.4771 93.1111C45.2383 93.2943 49.1114 94.4805 49.8824 94.7491C51.1666 95.1644 51.4334 95.1256 52.128 95.3826C54.1298 96.1432 52.4484 95.745 54.956 96.3775C55.4766 96.6706 56.3186 97.0113 56.9103 97.3088L56.3012 97.4704C56.5012 97.2676 56.6767 97.1043 56.8075 97.0236C57.1979 96.2304 58.032 95.4592 58.9629 94.0601C59.8935 92.6599 60.3417 91.3131 60.8917 91.189C61.1321 90.7729 61.8736 89.5418 62.4524 88.5234C62.8112 87.8784 63.12 87.3201 63.228 87.1294C64.0467 85.6794 63.6961 86.5049 64.3072 85.4062C64.4139 85.2122 64.2377 85.3787 64.9404 84.1448C65.2723 83.5715 67.0337 80.3848 68.0526 78.4377L68.6789 79.3751C67.7793 79.4547 67.1191 79.4988 67.0002 79.5047C63.605 79.6306 66.4573 79.4865 68.6683 79.2588L68.156 78.492C67.7722 79.2435 67.429 79.9132 67.317 80.1693C67.2146 80.316 67.1128 80.461 67.0046 80.6181C65.9948 82.41 66.7004 81.4613 67.1775 80.6582C67.4892 80.1329 67.9188 79.2777 68.2899 78.5623L68.6546 79.1082C68.2276 79.149 67.842 79.1773 67.5714 79.1796C67.1819 79.1808 67.4073 78.9687 68.5767 78.8898C67.322 78.9378 69.0219 78.7231 68.5228 78.7087C67.9771 78.7387 62.3637 79.0115 62.334 79.0845C63.3851 79.0648 64.6922 79.0073 65.7535 78.9474C67.0394 79.0358 63.6363 79.8667 60.0448 79.7498C59.7115 79.74 59.3768 79.7223 59.0452 79.6961C56.2242 79.4263 60.8791 79.4903 54.2052 79.3215C55.2286 79.398 56.0959 79.4593 57.0282 79.5008C57.1222 79.6502 55.6144 79.4324 54.8336 79.4271C54.4566 79.4292 56.7624 79.6603 54.7536 79.5809C53.0432 79.2618 51.7018 79.3778 48.8224 79.0258C49.6261 79.0905 50.4313 79.1453 51.2356 79.1892C46.3942 78.5178 57.6722 79.69 48.2515 78.556C49.3835 78.7 50.5117 78.8318 51.6546 78.9316C51.1088 78.8025 52.0146 78.6677 51.5249 78.573C50.2431 78.3266 48.3266 78.1703 46.7599 77.9217C46.0745 77.8133 46.5091 77.8184 46.4515 77.8094C45.5145 77.6568 45.7076 77.7762 44.8842 77.6446C44.2147 77.5379 42.7408 77.2363 41.6551 76.9911C41.0644 76.8531 40.591 76.7274 40.4217 76.6887C39.1879 76.4005 41.1913 77.0864 41.075 77.0618C40.2602 76.9747 38.6824 76.4479 38.7369 76.572C39.48 76.7832 40.4982 77.0478 41.5961 77.2782C46.1827 78.1907 52.0068 79.0677 43.6678 77.9082C46.4737 78.5614 45.6118 78.7209 41.5275 77.9473C41.5061 77.9431 41.4848 77.9389 41.4638 77.9347C38.1569 77.1677 40.3209 77.5945 38.621 77.012C38.3713 77.0197 34.0637 75.2383 33.8592 75.0887C34.0994 75.0267 32.8654 74.1549 33.8306 74.4906C33.9627 74.5564 35.6466 75.3859 35.1197 74.9691C34.8521 74.7681 34.1053 74.1957 34.2835 74.1827C33.9196 74.0608 33.5406 73.9276 33.1748 73.782C31.0766 72.4554 30.7293 71.9387 29.9657 71.0629L29.9732 71.0709C29.887 70.959 29.7985 70.8417 29.7024 70.7118C29.7057 70.7499 29.8541 70.9985 29.9096 71.1289C29.9365 71.1948 29.9363 71.2303 29.8551 71.1701C29.7605 71.094 29.534 70.8649 29.1292 70.3376C29.0678 70.2464 29.0444 70.1404 28.452 69.2428C27.3236 67.3828 27.23 66.9564 28.2054 68.2734C26.5621 65.5862 26.4584 64.0939 26.4264 61.968C26.4445 61.1141 26.5265 60.1356 26.8295 58.9065C26.5138 59.4153 26.2215 60.2787 26.2179 61.968C26.2275 62.8687 26.3374 64.0079 26.773 65.3791C26.7605 65.5704 26.7223 65.6717 26.7181 65.8717C25.9212 62.994 26.2404 62.3499 26.1702 61.968C26.1801 61.6256 26.0767 61.4376 26.2265 59.9696C26.146 59.148 27.83 55.3364 27.1064 56.5312C26.863 56.788 26.0715 59.2821 26.1196 58.9878C26.0332 58.9035 27.1372 55.8912 27.3698 55.6876C28.3204 54.2375 28.1071 54.8509 28.1723 54.835C28.3037 54.8726 28.4139 54.0694 31.4528 50.917C31.5935 50.774 31.7412 50.6284 31.8953 50.4817C32.0877 50.3005 32.0971 50.1735 32.4842 49.8248C33.2212 49.1821 33.2938 49.2542 33.9848 48.7246C34.6793 48.202 35.6432 47.4364 36.8717 46.9389C39.1121 46.0591 34.07 48.6252 32.2565 50.3561C32.0009 50.7758 34.574 48.3633 38.2952 46.7687C41.9671 45.0901 46.4981 44.1531 48.1411 43.8581L48.0128 43.8696C48.2394 43.8685 48.4129 43.8673 48.5248 43.8658C48.5529 43.8654 48.5752 43.8654 48.5923 43.8655C49.0623 43.8717 49.2831 44.0244 49.4202 44.113C49.5529 44.2076 49.5859 44.2419 49.5537 44.2008C49.4847 44.1236 49.1592 43.787 48.5248 43.7906C48.359 43.7898 48.1873 43.789 48.0128 43.7881L48.1266 43.7779C46.7885 44.009 45.3087 44.3482 45.1293 44.3599C44.9567 44.3754 44.9249 43.9069 43.0168 44.7327C42.457 44.9735 44.9226 44.3975 43.4815 44.8438C42.0456 45.3076 42.5853 45.0265 42.4769 45.047C42.1051 45.1203 40.6024 45.6845 40.4053 45.7485C37.3429 46.7218 37.4173 46.1193 41.6414 45.2338C43.364 44.518 39.2405 45.6795 41.4076 44.8421C44.0661 43.8407 46.1551 43.6418 46.4973 43.5705C47.2913 43.4241 47.7615 43.3453 48.0381 43.2913L48.0128 43.2936C48.766 43.2855 48.0844 43.2144 48.5248 43.181C48.7111 43.1964 49.3997 43.0455 50.1728 43.9333C50.3099 44.0514 50.4457 44.1889 50.566 44.3577C51.2718 45.9646 50.4469 44.058 50.0818 44.0483L50.0604 44.0269C50.0361 44.006 50.0303 44.0064 50.0496 44.036L50.0728 44.0591C50.1078 44.0989 50.2193 44.1884 50.3808 44.3899C50.5353 44.5908 50.7533 44.9198 50.7551 45.456C50.7543 45.7455 50.7119 46.0824 50.5277 46.4002C50.1268 47.0544 49.4448 47.2147 49.0002 47.321C46.3489 47.8677 48.4256 47.5674 48.1262 47.8179C48.0428 47.8885 45.1132 48.5421 49.0784 47.733C49.1002 47.7286 49.118 47.7248 49.1359 47.721C49.244 47.6381 49.4496 47.5125 49.6789 47.3655C50.0081 47.2532 50.4253 47.0733 50.7433 46.7153C51.0662 46.3626 51.2247 45.8637 51.2667 45.456C51.3134 45.0557 51.2268 44.6971 51.1406 44.5092C50.9523 44.0913 50.6822 43.8146 50.444 43.6138L50.495 43.6648C49.7098 42.7799 49.0256 42.8084 48.5248 42.7767C48.3659 42.7744 48.2028 42.7677 48.0128 42.7539L47.9416 42.7603C47.7479 42.7815 47.5265 42.8011 47.2551 42.8221C48.3865 42.8064 46.5818 43.024 45.924 43.219C43.4989 43.9841 46.7082 43.0814 41.2036 44.5303C41.936 44.3805 42.6028 44.2706 43.3148 44.165C42.6622 44.3517 42.0132 44.5537 41.3717 44.7719C40.3406 44.8662 36.9813 46.2881 39.9638 44.8693C36.2366 46.247 34.9275 47.2957 34.2815 47.8753C34.1605 47.9915 33.6707 48.3308 33.1159 48.7571C33.2481 48.7119 33.465 48.7211 33.3869 48.8C32.6869 49.4851 31.4096 50.3243 31.7249 49.9045C31.4316 50.1661 31.1946 50.3931 31.0623 50.5215C31.0312 50.551 31.0043 50.5766 30.9846 50.5953C30.6237 50.9418 30.8507 50.6675 31.0117 50.4653C31.1243 50.3202 31.2028 50.2109 30.9815 50.412C30.9774 50.4157 30.9724 50.4204 30.9666 50.4259C30.7096 50.626 29.1471 52.3669 29.1098 52.3997C28.9238 52.4402 29.5212 51.7106 29.4946 51.7412C29.5291 51.8191 28.5485 52.3573 26.5377 55.9909C26.5611 56.2062 28.5239 52.9633 28.1951 53.9183C27.7772 54.8723 26.5397 56.6089 26.6669 57.1652C26.5597 57.3041 26.495 57.3614 26.3926 57.4802C25.5167 60.6197 25.5675 60.6917 25.4102 61.6923C25.4042 61.7727 25.3989 61.8651 25.395 61.968C24.8908 64.5302 28.3278 71.8727 25.7963 64.5403C26.059 65.6879 26.489 66.8173 27.0442 67.8406C26.888 68.1907 26.2873 67.8707 29.3515 71.6378L29.3617 71.6486C29.5279 71.8231 29.7072 72.004 29.9015 72.1906C30.8162 73.0451 31.0381 73.4573 32.1811 73.9681C31.8811 74.1236 35.2006 75.8259 35.533 75.9128C36.5249 76.4103 35.0671 76.0033 33.3536 75.0878C31.6216 74.2021 29.8218 72.599 29.5994 72.0691C29.4602 71.9602 29.3415 71.8599 29.2391 71.7675L29.2253 71.7528C28.5421 71.0767 28.5331 70.8642 27.7164 69.7687C26.4717 67.8941 26.1854 67.6047 25.5793 64.9671C25.2005 63.6747 25.6269 66.2998 26.5662 68.0398C27.0003 68.9173 27.4497 69.5942 27.4608 69.6696C27.4932 69.7324 26.9847 69.2667 26.0521 67.466C25.5466 66.4401 24.7729 64.549 24.7374 61.968C24.5584 58.267 26.6859 53.4748 30.4497 49.89L30.4402 49.8994C34.8417 45.4031 41.5333 43.0749 47.7879 41.9152L48.0128 41.8949C48.1836 41.894 48.3543 41.8931 48.5248 41.8922C49.4484 41.8509 50.5856 42.3578 51.164 43.1073L51.0015 42.9447C51.6673 43.4532 52.2677 44.4864 52.2351 45.456C52.2569 46.19 51.9707 47.1798 51.299 47.7965C50.6438 48.4148 49.9146 48.6391 49.2904 48.7721L49.2681 48.7763C43.2239 49.8561 38.1413 51.9512 35.7444 54.2682C35.0458 54.9081 34.5024 55.4992 34.0951 56.0001C32.7355 57.6551 31.9784 59.4658 32.0013 61.2C31.9977 63.7035 33.2064 65.8385 34.8351 67.5053L34.7955 67.4657C37.0549 69.6201 39.9352 70.7376 42.9043 71.2819L42.9391 71.2888C48.3778 72.4071 53.8358 73.1363 60.3008 73.1563C61.1958 73.1566 62.1096 73.1416 63.0443 73.1083C63.9004 73.0912 67.7056 72.8771 70.7087 72.4316L69.6084 73.2485C70.8266 70.7407 71.795 68.814 71.3748 69.9769C71.2482 70.3301 69.0304 75.2364 71.1771 71.1437C70.674 71.9448 71.7665 69.4582 71.8524 69.247C73.8293 64.4032 72.4921 67.1166 75.9639 59.6613ZM89.7182 39.4437C83.5924 48.1066 88.1771 41.7973 87.243 43.8119C87.9722 42.6717 88.7334 41.5605 89.5375 40.4773C89.3076 40.7487 89.084 41.0176 88.8589 41.2941C88.858 41.2954 88.8571 41.2966 88.8563 41.2979C89.1301 40.6773 89.4191 40.0563 89.7182 39.4437ZM99.8599 116.706C99.4431 116.621 99.0311 116.535 98.5817 116.433C98.0302 116.24 97.4811 116.043 96.9337 115.842C96.1384 115.543 95.3524 115.245 94.5652 114.942C94.7358 114.97 94.9014 114.996 95.072 115.025C95.7043 115.26 96.3357 115.492 96.9689 115.723C97.9304 116.065 98.8907 116.392 99.8599 116.706ZM31.2322 51.4185C29.7903 52.7695 30.0238 52.752 28.4651 54.8224C28.786 54.6504 29.1255 54.4607 29.4596 54.2988C30.4577 52.9256 30.8004 52.4847 31.9148 51.39L31.9228 51.3821C32.0708 51.2374 32.2368 51.0815 32.423 50.916C32.2204 51.0312 32.0139 51.1555 31.8173 51.2765C31.7961 51.2919 31.7818 51.3006 31.7675 51.3093C31.5201 51.5688 31.2663 51.8479 31.038 52.1073C30.7603 52.2716 31.3756 51.5453 31.697 51.167C31.8894 50.9325 31.9587 50.8188 31.6254 51.0846C31.5253 51.1647 31.3988 51.2701 31.2368 51.4133C31.2352 51.415 31.2337 51.4168 31.2322 51.4185ZM28.7976 69.2911C29.0157 69.6126 29.4954 70.2756 30.0992 70.9561L30.088 70.9442C31.1165 72.0709 32.5816 73.0997 32.9092 73.2475C33.8866 73.7224 31.1678 71.9659 30.216 70.8202L30.2308 70.836C29.7092 70.233 29.5241 69.9951 30.2802 70.791L30.2639 70.7737C30.6232 71.115 31.1978 71.655 32.1458 72.3317C32.1358 72.2804 32.1874 72.2764 32.2082 72.2487C31.5636 71.7566 30.9588 71.2202 30.403 70.6388L30.4234 70.6604C29.934 70.1161 29.478 69.5487 29.0626 68.952C28.998 69.0992 28.8546 69.1325 28.7976 69.2911ZM71.8097 73.6728C71.7469 73.8016 71.6651 73.9729 71.5687 74.177L71.4029 74.5227L71.0305 74.5767C68.6522 75.0254 62.1865 75.486 64.5759 75.4928C65.3505 75.5176 68.8988 74.9811 70.2411 74.7791C70.9139 74.6895 70.4978 74.8244 71.0573 74.7554L71.5242 74.6877L71.732 74.2544C71.8064 74.1065 71.9129 73.878 72.072 73.5176C71.9902 73.5629 71.9154 73.5795 71.808 73.6772C71.8086 73.6757 71.8092 73.6743 71.8097 73.6728ZM72.4892 70.5489C71.9843 71.656 71.4762 72.7747 70.9667 73.8919L70.9559 73.9144L70.9317 73.9179C70.4331 74.0001 69.9336 74.0764 69.4341 74.1467C69.8518 74.1406 70.3977 74.0882 70.9471 74.0206L71.0256 74.0092L71.0606 73.9363C71.5707 72.9301 72.0649 71.8909 72.2272 71.8591C72.0387 72.2934 71.8525 72.7223 71.6637 73.1564C71.49 73.4329 71.318 73.7052 71.1463 73.9769L71.0893 74.0958L70.9611 74.1144C70.9235 74.1155 70.8858 74.1165 70.8482 74.1175C69.3883 74.4264 70.2915 74.3904 67.5269 74.6564C68.7098 74.7444 69.2371 74.837 71.0251 74.5408L71.3786 74.4895L71.536 74.1615C71.8575 73.4463 72.2537 72.494 72.7844 71.1532C72.5497 72.031 73.3898 71.4967 74.164 68.9614C74.3093 68.4874 73.394 70.322 73.3737 70.3382C73.1135 70.5639 73.5177 69.4974 73.2546 69.7473C73.1361 69.8595 72.6039 70.9905 72.4493 71.1243C72.3762 71.1851 72.7793 70.0609 72.4892 70.5489ZM74.5856 67.7522C74.4358 68.2693 75.3898 66.7097 76.0215 65.2633C77.0065 63.008 75.1912 66.4424 74.5856 67.7522ZM99.8689 116.709C99.8659 116.708 99.8629 116.707 99.8599 116.706C99.8615 116.706 99.863 116.706 99.8645 116.707C99.866 116.707 99.8675 116.708 99.8689 116.709ZM26.676 64.4512C26.9695 65.6227 27.7257 67.2412 27.7794 67.0671C28.0137 67.5995 28.2894 68.1246 28.5937 68.6297C28.6193 68.6063 28.642 68.5782 28.6673 68.555C27.7212 67.0715 27.0654 65.4376 26.8209 63.7358C26.7643 63.9629 26.7101 64.1782 26.676 64.4512ZM40.8432 76.4247C41.279 76.5309 41.5613 76.587 41.7372 76.616C42.1796 76.6829 41.9244 76.58 41.7557 76.4951C41.6575 76.4419 41.5869 76.3947 41.7458 76.4051C41.757 76.4058 41.769 76.4067 41.7816 76.4079C42.3386 76.4576 44.2694 76.8718 44.0541 76.7232C43.3127 76.5879 42.5551 76.4409 41.7982 76.2851C41.2029 76.1563 40.6021 76.0109 40.0149 75.8514C40.3298 76.0566 40.5445 76.2335 40.8477 76.4257C40.8462 76.4254 40.8447 76.425 40.8432 76.4247ZM120.151 39.9908C120.153 39.932 120.154 39.8765 120.156 39.824C120.125 38.5358 120.442 38.9199 119.71 36.175C119.71 36.1771 119.711 36.1792 119.711 36.1813C119.966 37.2687 120.091 38.5194 120.065 39.824C120.034 41.7743 119.596 43.8142 119.022 45.6298C119.749 43.8303 120.036 42.3512 120.151 39.9908ZM35.6543 48.3449C36.1495 47.9052 33.5537 49.4824 33.133 50.0208C32.3924 50.7968 34.8451 48.9248 35.6543 48.3449ZM74.1288 78.1269C73.7884 79.1481 74.039 78.9367 74.588 77.9964L74.3186 78.204C75.6887 78.0864 78.2844 77.6263 80.8573 76.8225C81.2585 76.7109 78.2225 77.4092 79.1016 77.122C79.1916 77.0984 80.844 76.6685 81.2373 76.5083C81.6318 76.3529 81.1809 76.3872 81.8325 76.1555C82.9776 75.761 85.6119 75.0042 86.4268 74.591C86.5352 74.5423 84.8984 75.0002 84.7954 75.0252C83.1296 75.5237 81.5679 76.1455 81.3083 76.2204C79.9771 76.6032 80.1434 76.416 79.7982 76.4789C79.1477 76.5953 78.0343 76.9228 77.9534 76.9359C75.8887 77.3094 80.554 76.2333 81.1517 75.9708C82.7792 75.3459 81.2316 75.7659 85.1448 74.3682C85.5181 74.2352 89.9438 72.6124 84.3107 74.5069C95.1165 70.1571 78.8017 76.4732 76.8169 76.4943C75.9675 76.7114 77.2902 76.5465 76.7825 76.7143C75.9935 76.9776 74.7987 77.2512 74.1792 77.4331L73.9704 77.4698L73.8781 77.6651C73.7801 77.954 73.7432 78.1279 73.8199 78.098C73.91 78.0615 74.0138 77.9501 74.1281 77.7818L74.1588 77.7168L74.2283 77.7046C75.1737 77.6926 77.2336 77.1146 78.7517 76.7835C78.5785 76.9095 78.5238 77.0046 78.1836 77.1674C78.6387 76.977 75.3134 77.6766 74.2535 77.844C74.1826 78.0001 74.1359 78.1031 74.1281 78.1266C74.1283 78.1267 74.1285 78.1268 74.1288 78.1269ZM101.123 66.4141C103.34 64.989 103.046 64.906 105.025 63.5273C106.548 62.035 103.292 64.6622 102.876 64.9178C101.046 66.1836 100.96 65.9662 99.1058 67.269C99.8337 66.9607 100.44 66.7205 101.123 66.4141ZM80.4451 75.9042C82.1038 75.318 79.0791 76.1619 78.9467 76.1562C77.5668 76.34 86.5851 73.7568 80.4451 75.9042ZM61.2163 74.8764C60.4095 74.8766 60.7831 74.9637 60.3008 75.0082C60.2439 75.0133 60.1752 75.0177 60.0911 75.021C59.2915 75.067 56.5682 74.8775 56.634 74.9424C56.6964 75.0336 61.7067 75.3588 56.6721 75.2397C56.8408 75.2873 56.782 75.3143 56.8628 75.354C58.0039 75.4047 59.1553 75.4317 60.3008 75.4327C60.5456 75.4329 60.79 75.432 61.0339 75.4299C60.7905 75.3955 60.5454 75.3593 60.3008 75.322C59.7802 75.2424 59.2621 75.157 58.7681 75.0717C59.5446 74.9953 59.9789 75.1115 60.0204 75.1122C60.0204 75.112 60.0204 75.1119 60.0204 75.1118C60.1129 75.1115 60.2067 75.1103 60.3008 75.1082C61.6796 75.0771 63.1119 74.8569 61.2163 74.8764ZM106.657 27.6391C106.868 27.2986 104.896 27.9792 104.123 28.3027C103.331 28.5813 102.218 28.9314 102.669 28.8803C103.946 28.3877 106.621 27.6284 106.657 27.6387C106.657 27.6388 106.657 27.6389 106.657 27.6391ZM111.998 57.1723C112.031 57.1363 112.063 57.1011 112.094 57.0668C113.447 55.5343 113.235 55.7156 114.955 53.7382C114.836 53.7768 114.716 53.8147 114.599 53.8522C113.324 55.3962 113.471 55.497 112 56.9739C111.915 57.0572 111.826 57.1441 111.73 57.2354C111.435 57.5138 111.937 56.7903 110.679 58.1185C111.118 57.8051 111.565 57.4887 111.998 57.1723ZM118.151 48.3394C117.036 50.5344 116.518 52.5716 118.489 48.366C118.521 48.287 118.552 48.2008 118.579 48.114C118.754 47.5492 118.805 46.9615 118.316 47.9939C118.268 48.0931 118.213 48.2087 118.151 48.3394ZM76.9734 61.5297C75.1279 65.4497 77.2904 61.0272 77.8424 60.0398C74.5028 67.3376 76.7712 62.3645 78.1776 59.6257C78.538 58.9237 78.846 58.3718 78.9864 58.2113C79.4368 57.0658 80.2758 54.9133 79.1192 57.1954C78.6408 58.1499 78.886 57.8348 78.8578 57.8925C78.4388 58.7529 78.2214 59.1308 77.9903 59.5387C77.7471 59.9686 77.4895 60.4316 76.9734 61.5297ZM97.2859 68.8936C97.4231 68.8067 97.1563 68.8549 97.5885 68.5728C98.022 68.2925 99.0476 67.7265 99.1121 67.6124C99.1805 67.507 97.1702 68.7067 96.5644 69.0938C95.9632 69.488 96.0379 69.671 97.2859 68.8936ZM110.52 59.0028C112.014 57.4462 109.247 59.6565 108.896 59.9578C105.866 62.7298 110.554 58.8737 110.52 59.0028ZM80.7986 52.2004C78.6173 56.9591 80.5849 53.658 82.2618 50.8524C82.4277 50.4529 82.6008 50.0431 82.7673 49.6499C82.065 51.497 80.6408 54.6189 84.0628 47.7975C82.0253 51.4454 83.6331 48.3374 83.6359 48.3079C83.4627 47.688 80.755 53.2749 80.8008 52.1963C80.8001 52.1977 80.7994 52.199 80.7986 52.2004ZM91.048 72.0443C89.0255 73.0507 83.5217 75.1113 86.1617 74.3459C87.824 73.6395 89.4502 72.8726 91.048 72.0443ZM39.9135 50.4923C41.6351 49.8559 43.2336 49.3126 45.4291 48.7402C43.4173 49.1171 44.7036 48.7482 45.3661 48.5397C46.3715 48.2224 43.9065 48.8659 43.9032 48.8734C43.9113 48.7384 45.4451 48.1856 41.9222 49.3338C42.7679 48.9823 43.6223 48.666 44.4952 48.3747C41.7669 49.1473 41.1187 49.3253 39.4042 49.9385C41.1456 49.5156 38.8864 50.1711 37.1662 51.3922C36.3144 51.9805 39.0238 50.7598 39.9198 50.4896C39.9177 50.4905 39.9156 50.4914 39.9135 50.4923ZM78.3537 57.0238C78.1681 57.5318 78.0204 58.0067 77.8526 58.5029C77.7305 58.7699 77.6088 59.0371 77.4874 59.3052C77.3745 59.5543 77.2616 59.8035 77.1488 60.0524C77.0781 60.0968 77.0103 60.1298 76.9362 60.1854C76.6094 60.8567 76.7895 60.6196 76.7013 60.8232C76.7011 60.8231 76.7009 60.823 76.7007 60.8229C75.4338 63.7427 74.8724 64.9189 73.6864 67.1158C73.8126 67.175 73.9387 67.2342 74.0648 67.2934C74.2909 66.7805 74.5196 66.2625 74.7456 65.7496C74.8041 65.4481 74.8631 65.1455 74.9215 64.844C75.2337 64.2743 75.5428 63.7098 75.8544 63.1398C76.0497 62.6577 76.2878 62.0801 76.4539 61.6614C77.8996 59.4807 75.1759 64.6987 75.2984 64.814C75.3649 64.8771 77.0989 61.1918 77.8513 59.4742C78.0061 59.1217 78.1204 58.8533 78.171 58.7166C78.2143 58.6013 77.4054 59.6359 78.4661 57.7403C78.6353 57.4444 79.2421 57.6054 79.8085 55.2863C79.8911 54.9557 79.0256 55.8267 78.3537 57.0238ZM67.7868 73.629C71.1254 73.8038 58.9107 74.1845 64.1901 74.2139C62.6942 74.4658 62.9686 74.4568 64.4995 74.5436C64.6345 74.5522 63.5847 74.6556 63.6741 74.6565C65.1049 74.6892 66.8172 74.494 66.8431 74.6547C67.2277 74.612 67.5892 74.5694 67.9731 74.5205C66.3557 74.5262 68.8939 74.1774 69.8501 73.9055C70.2867 73.7877 69.2628 73.9048 69.6299 73.8043C69.7244 73.7795 70.4409 73.6972 70.8871 73.6209L70.6953 73.7633C70.778 73.5803 70.8342 73.443 70.8269 73.4195C70.8023 73.3504 70.6918 73.4446 70.5165 73.6786L70.8578 73.4252C70.4625 73.404 69.788 73.4245 68.9108 73.4775C68.9108 73.4774 68.9108 73.4773 68.9107 73.4772C68.5331 73.5306 68.1656 73.5814 67.7868 73.629ZM113.58 27.5508C113.809 27.7604 114.419 28.1456 114.471 28.2448C114.514 28.3754 114.091 27.9882 111.997 27.4229C112.193 27.521 112.39 27.6256 112.577 27.7338C113.263 27.958 113.906 28.2389 114.544 28.5996C115.617 28.8342 116.802 29.8121 117.429 30.5701C118.156 31.3878 118.401 31.8237 117.644 30.629C117.621 30.5949 117.576 30.5415 117.518 30.4786C117.185 30.0853 116.369 29.3353 117.526 30.3184C117.524 30.3165 117.523 30.3147 117.521 30.3129C115.725 28.6285 115.383 28.5494 113.58 27.5508ZM98.1191 30.2715C95.5444 32.448 98.3084 30.3002 100.805 29.0605C102.444 28.2259 103.914 27.71 103.067 27.9462C102.981 27.9702 101.87 28.396 100.75 28.9466C99.358 29.6112 97.9882 30.5095 98.1191 30.2715ZM117.064 52.6156C118.484 50.5136 118.27 50.1953 118.082 50.3813C117.89 50.5621 117.044 52.0763 116.894 52.2472C116.445 52.8214 117.288 51.5293 116.703 52.273C116.563 52.5616 113.781 55.8859 113.615 56.0025C112.919 56.8599 114.156 55.8041 113.962 56.0525C113.565 56.5734 112.999 57.1407 112.598 57.5556C112.365 57.7981 112.191 57.9907 112.142 58.0978C112.006 58.3946 112.312 58.0922 112.699 57.6528C113.128 57.1691 113.64 56.5111 113.793 56.337C114.673 55.3332 114.694 55.5039 115.354 54.7463C116.006 53.9817 116.365 53.427 116.883 52.7071C117.055 52.4661 116.99 52.7205 117.064 52.6156ZM120.208 44.9395C119.668 47.5242 121.611 41.3944 121.33 40.5496C121.322 38.3179 120.696 43.781 120.208 44.9395ZM73.1352 69.123C74.0221 66.9141 71.5638 71.8751 70.935 73.3286C71.1132 73.0882 72.8309 69.8834 73.1352 69.123ZM81.4642 50.9106C80.4991 52.8753 82.0969 50.4345 82.9598 48.8313C83.2885 47.794 82.842 48.6959 82.2758 49.7458C81.7126 50.7958 82.226 49.3823 81.4642 50.9106ZM96.5477 70.1647C97.0158 70.0115 103.299 65.6974 99.6011 68.0373C99.3591 68.231 95.4451 70.5923 94.541 71.05C94.4677 71.0907 94.4164 71.1199 94.3902 71.1362C94.1008 71.3151 94.243 71.2811 94.5862 71.1385C95.0651 70.9375 95.9277 70.5131 96.5477 70.1647ZM86.4579 41.6304C85.9538 42.6999 85.3505 43.6682 86.0974 42.8775C86.0982 42.8762 86.0991 42.8749 86.0999 42.8736C84.6729 45.2433 84.2493 45.3171 83.9337 45.7766C83.9131 45.8088 83.8951 45.8388 83.8776 45.871C82.8275 47.8209 84.1107 46.1348 83.5266 47.3962C83.8508 46.7639 84.0943 46.3166 84.2869 45.9802C84.9872 44.7952 85.0148 44.9743 86.0336 43.3593C86.3204 42.8905 87.4455 40.9953 87.5792 40.6917C87.703 40.3836 86.8654 41.1761 86.4579 41.6304ZM86.803 74.7606C89.241 73.9057 91.281 72.6951 87.9751 74.0225C86.3538 74.6411 85.3117 75.2641 86.803 74.7606ZM30.5314 72.6865C30.2743 72.3685 30.0211 72.0356 29.7709 71.6826C30.4645 72.345 31.217 72.9425 32.0088 73.4755C31.3781 73.0618 30.7702 72.6068 30.1918 72.106C31.5207 73.3149 32.1399 73.898 30.5351 72.6896C30.5339 72.6886 30.5326 72.6875 30.5314 72.6865ZM55.4046 96.7769C54.682 96.4275 53.1241 96.1168 53.3067 96.2006C54.6784 96.8153 56.4051 97.26 55.4046 96.7769ZM71.0213 72.0076C69.7302 74.6627 70.9289 72.9842 71.7244 71.3582C71.1885 72.3295 71.7531 70.5005 71.0213 72.0076ZM67.317 80.1693C67.4695 79.9508 67.6227 79.7302 67.7894 79.483C67.3132 80.2861 67.2097 80.4137 67.317 80.1693ZM97.7615 69.8319C98.1785 69.6426 101.033 67.8521 101.377 67.5493C102.114 66.9581 99.8435 68.2768 98.5575 69.1226C98.4184 69.2199 97.3587 70.0394 97.7676 69.8283C97.7656 69.8295 97.7635 69.8307 97.7615 69.8319ZM33.8482 75.0941C33.8451 75.0885 33.8492 75.0869 33.8592 75.0887C33.8546 75.09 33.8538 75.0934 33.8482 75.0941ZM15.2102 116.331C15.1956 116.317 15.189 116.307 15.1935 116.303C15.1977 116.311 15.2085 116.323 15.2102 116.331ZM116.012 54.7098C117.013 54.0449 118.36 51.7387 117.025 53.3552C116.955 53.448 116.189 54.4981 116.012 54.7098ZM106.438 54.8186C106.921 54.3515 107.404 53.8707 107.884 53.3784L107.877 53.3862C109.953 51.2256 111.886 48.7571 113.079 46.1237L113.071 46.1409C113.548 45.0514 113.947 43.9567 114.231 42.8788C114.369 42.3396 114.453 42.3969 114.499 42.2464C114.62 41.8338 114.542 41.5616 114.59 41.2612C114.668 40.7717 114.712 40.2931 114.723 39.824C114.742 38.8735 114.642 37.9643 114.382 37.0947C113.918 35.7816 114.424 36.2662 114.273 35.7763C113.885 34.8416 113.98 35.7798 113.7 35.5081C113.508 35.2054 113.291 34.9166 113.049 34.6431L113.002 34.5914C112.548 34.0135 112.009 33.5285 111.387 33.1704C111.636 33.2577 111.881 33.3655 112.12 33.4966C111.746 33.2074 111.153 32.8262 111.917 33.1429C111.779 33.0208 111.647 32.906 111.49 32.7944C111.381 32.8874 110.574 32.5779 110.468 32.6553C110.37 32.7145 110.827 32.8438 110.82 32.8543C110.786 32.8995 110.334 32.7154 109.829 32.5972C109.327 32.4717 108.775 32.4112 108.701 32.4036C108.369 32.3686 108.566 32.2369 108.429 32.2015C108.404 32.1953 108.368 32.1925 108.316 32.1951C107.727 32.241 108.166 32.5755 107.315 32.1706C107.021 32.3784 106.983 32.2973 106.58 32.3713C106.527 32.3816 106.588 32.4641 106.566 32.4716C105.984 32.6825 106.401 32.4023 106.397 32.3934C106.304 32.2455 105.667 32.4947 105.528 32.5287C104.436 32.7586 103.527 33.077 102.593 33.502C102.006 33.7613 101.417 34.0758 100.78 34.4846C100.415 34.7071 99.4144 35.5366 99.0817 35.7822C98.749 36.019 98.8449 35.7913 98.6444 35.8852C98.559 36.3203 98.333 36.5474 97.64 36.9289C97.566 37.2726 97.4811 37.125 97.1101 37.5322C96.8 37.8718 96.4112 38.6015 95.9143 38.8197C96.3297 38.4198 96.216 38.3916 96.6359 37.8915C96.7644 37.7123 98.4287 36.1902 98.1774 36.1534C98.0379 36.1279 97.54 36.7036 97.5073 36.709C97.3035 36.7378 97.5185 36.3464 97.8345 36.1367C97.7799 36.2157 97.7108 36.3085 97.6521 36.3924C98.3765 35.9479 97.5789 35.9034 98.3807 35.8588C98.4792 35.854 98.496 35.9211 98.6361 35.8868C98.6398 35.8495 98.4762 35.9013 98.5737 35.8047C98.6728 35.7063 98.956 35.6349 98.9206 35.5298C98.8709 35.3736 98.4613 35.787 98.4228 35.8096C98.4231 35.8106 98.4233 35.8116 98.4235 35.8126C98.0773 35.9987 98.6873 35.4743 98.7105 35.4402C98.8448 35.2101 98.6659 35.2594 98.913 34.9637C99.0536 34.7944 99.5087 34.482 99.6653 34.352C99.8203 34.2211 99.5236 34.3483 99.6245 34.2558C99.7265 34.1625 99.896 34.1082 100.017 34.0019C100.069 33.9564 100.02 33.8927 100.046 33.8713C100.324 33.6435 100.224 33.9126 100.487 33.7247C100.654 33.6019 101.174 33.0958 100.735 33.3162C100.925 33.1766 101.116 33.0467 101.313 32.9169C101.172 32.9716 101.032 33.0368 100.894 33.0888C101.292 32.8901 101.4 32.673 101.642 32.5275C101.756 32.4595 101.884 32.4294 102.011 32.3959L102 32.4017C102.141 32.3625 102.281 32.318 102.405 32.2068C102.702 31.9448 102.338 32.1081 101.953 32.3144L101.966 32.3079C101.688 32.4511 101.405 32.6184 101.325 32.6499C101.25 32.679 101.452 32.4157 101.493 32.39C101.617 32.3083 101.784 32.2661 101.921 32.2226L101.908 32.2298C101.965 32.2108 102.017 32.1913 102.058 32.1681C102.555 31.8895 102.818 31.6259 103.315 31.3776C104.726 30.6689 106.63 30.024 108.429 30.004C108.76 29.9977 109.084 30.0073 109.395 30.0318C110.122 30.0918 110.531 30.332 110.847 30.4093C111.591 30.6121 111.726 30.5411 112.36 30.8253C113.319 31.2493 114.381 32.2832 114.877 32.9376C114.889 32.9526 114.901 32.9675 114.913 32.9824L114.865 32.9279C115.236 33.3279 115.614 33.6599 115.702 33.7782C117.038 35.4581 117.557 38.0485 117.533 39.6631C117.534 39.7187 117.534 39.7723 117.533 39.824C117.514 40.4934 117.368 40.8049 117.361 40.9506C117.312 41.623 117.44 41.457 117.352 41.997C117.3 42.2873 117.184 42.322 117.174 42.3597C117.078 42.6905 117.199 42.784 117.147 43.0475C116.839 44.561 116.265 45.9073 115.671 47.2523C115.669 47.2567 115.667 47.2609 115.665 47.2648L115.658 47.28C115.614 47.364 115.565 47.3355 115.54 47.3983C115.426 47.6807 115.574 47.5939 115.442 47.8843C115.164 48.4875 114.823 49.0737 114.452 49.6601C114.415 49.718 114.332 49.7041 114.249 49.8363C114.166 49.9692 114.167 50.1097 114.028 50.3145C113.668 50.8471 113.231 51.3117 112.822 51.8449C112.755 51.9332 112.747 52.1008 112.643 52.2324C112.32 52.6473 111.762 53.1882 111.468 53.5226C110.922 54.1484 110.397 54.7399 109.865 55.3103C109.45 55.7479 109.042 56.1688 108.618 56.5821C108.389 56.8051 108.123 56.9377 108.001 57.0506C107.726 57.3057 107.989 57.1716 107.713 57.4327C105.453 59.5631 103.025 61.5325 100.474 63.3741C99.4733 64.0988 98.2724 65.0124 97.2468 65.6305C96.8207 65.8872 96.6827 65.8364 96.3834 66.0192C95.8479 66.344 95.8264 66.5292 95.2623 66.8771C94.9886 67.0449 94.6598 67.1742 94.3376 67.31L94.3242 67.3174C94.1148 67.4027 93.9083 67.491 93.7202 67.5957C93.2415 67.8614 93.0842 68.106 92.5305 68.4089C92.0743 68.6581 91.3959 68.9221 90.8907 69.1755C86.4392 71.4133 81.7868 73.1414 76.8929 74.2322L74.061 74.8627L75.2518 72.2771C75.3332 72.1005 75.415 71.9236 75.4972 71.7471C76.2604 70.106 77.0588 68.2637 77.9577 66.6185C78.0423 66.464 78.0573 66.7657 78.2632 66.2411C78.3737 65.9594 78.4398 65.5255 78.7247 64.8872C79.4574 63.247 80.2693 61.5862 81.1007 59.9212C82.1778 57.7206 83.3326 55.5257 84.4291 53.3759C85.3837 51.5033 86.3093 49.5823 87.2953 47.7113L87.2886 47.7227C89.2516 43.8876 91.7237 40.2506 94.9986 38.1611C95.237 38.0095 95.3877 38.3551 95.3498 38.5403C95.1958 38.6029 95.0403 38.6485 94.8748 38.7123C95.0622 39.1513 94.9999 39.0453 94.4864 39.571C94.1719 39.8961 94.5479 39.7452 94.4311 39.9608C94.2738 40.2376 93.5202 41.4975 93.4751 41.1017C93.4571 41.2032 93.442 41.2981 93.4253 41.3972C92.8033 42.2477 92.2501 43.1108 91.7271 43.9978C91.6372 44.151 91.7058 44.2098 91.6136 44.3677C91.3666 44.7936 91.0996 45.0835 90.8287 45.5114C90.6821 45.7438 90.7477 45.833 90.5479 46.1311C90.3487 46.4304 90.2333 46.3491 90.1027 46.8458C90.4193 46.6672 89.5625 47.8102 89.3184 48.2556C89.2958 48.2957 89.2226 48.5406 89.1292 48.7862C89.0666 48.943 88.9998 49.0932 88.9321 49.1952C88.7536 49.4643 88.4198 49.8377 88.2219 50.2999C88.1292 50.5166 88.1662 50.7007 88.0483 50.9239C87.9654 51.0806 87.7654 51.213 87.652 51.4071C87.5382 51.6011 87.3817 52.0702 87.3405 52.1489C87.1911 52.4335 87.2941 52.0855 87.185 52.2765C86.6593 53.199 86.0442 54.2708 85.6116 55.2262C85.5583 55.3436 85.7204 55.2266 85.7153 55.2432C85.4158 56.071 85.5235 55.6026 85.3438 55.7758C85.1677 55.9427 84.459 57.4608 84.5974 57.5418C84.3974 57.501 84.3694 57.9013 84.3325 57.9907C84.1886 58.3384 84.0668 58.198 83.9562 58.5492C83.9157 58.6781 84.1325 58.4935 84.0672 58.6215C83.9058 58.938 83.6009 59.1464 83.3822 59.5671C83.3295 59.6686 83.3884 59.7372 83.2997 59.9201C83.2105 60.1025 82.7611 60.8343 83.0843 60.5502C83.0159 60.6319 82.9622 60.7025 82.918 60.7675C82.7353 61.0339 82.7099 61.2023 82.5024 61.6389C82.4366 61.777 82.2327 61.8991 82.1327 62.2116C82.0989 62.3172 82.2166 62.3685 82.1477 62.5191C81.9905 62.8636 81.7197 63.1316 81.5132 63.5658C81.1266 64.3779 80.8121 65.2866 80.3931 66.1257C80.2792 66.3537 80.188 66.2424 80.0324 66.5787C80.0098 66.6284 79.9268 67.0809 79.8117 67.3098C79.7423 67.4476 79.3423 68.143 79.2705 68.2875C79.152 68.5262 79.2463 68.6208 79.1643 68.7439C78.9275 69.0998 78.8982 68.7161 78.9201 69.2819C78.7247 69.3774 78.6165 69.6538 78.4211 69.6709C78.5224 69.9051 78.2662 70.0362 78.1877 70.3678C78.1091 70.6997 78.3307 71.0981 77.9398 71.0136C77.9198 71.1759 77.7248 71.8186 77.685 71.9238C77.5668 72.2337 77.5391 72.028 77.4518 72.2627C77.4363 72.304 77.5227 72.2916 77.4024 72.5474C77.3713 72.6133 77.2672 72.8458 77.1503 73.1077L76.4039 72.2185C76.8313 72.1186 77.3311 71.9944 77.3799 71.988C78.2983 71.8685 76.9139 72.186 76.7391 72.3085C76.6999 72.2965 76.6611 72.2843 76.6197 72.273C76.518 72.289 76.4588 72.3075 76.4301 72.3264L77.0485 73.0631C77.0516 73.0183 77.0227 73.0145 76.9824 73.0342L76.4471 72.3966C76.4981 72.4223 76.5905 72.4398 76.6696 72.4371C76.8584 72.4309 77.1748 72.2744 77.337 72.2893C77.4179 72.2969 77.4221 72.5033 77.1911 72.537C77.4471 72.5357 77.1342 72.6825 77.2438 72.7146C77.3647 72.752 78.453 72.4851 78.4289 72.3749C78.2264 72.4261 77.9763 72.4969 77.7708 72.5459C77.4572 72.4288 78.0954 71.5872 78.8969 71.6322C79.4811 71.662 78.6455 72.0626 79.8614 71.5414C79.6656 71.5915 79.4968 71.6222 79.3184 71.6653C79.2597 71.5324 79.5893 71.6019 79.7234 71.5143C79.7875 71.4721 79.3242 71.502 79.6918 71.3585C80.0748 71.4597 80.2655 71.1869 80.8052 71.0154C80.6659 71.0977 80.526 71.1794 80.3859 71.2607C81.3484 71.1202 79.2275 71.8264 81.0405 71.3527C80.8276 71.427 80.6129 71.4918 80.3991 71.5676C80.5264 71.6078 80.4227 71.8715 80.5308 71.8875C80.8148 71.9296 81.1596 71.7442 81.4639 71.6578C81.5971 71.6198 81.5337 71.7031 81.5449 71.6999C81.7275 71.6479 81.6606 71.5772 81.817 71.5204C82.0138 71.4495 82.6143 71.338 82.7039 71.2964C82.9359 71.1909 82.4804 71.1634 82.4995 71.143C82.6253 71.0119 82.9591 70.9703 82.9067 70.8721C82.1843 71.2103 79.983 71.8075 81.8875 71.0028C81.2929 71.0103 81.3759 70.7292 82.1375 70.4541C82.767 70.2232 82.3889 70.4555 82.7548 70.4436C82.8022 70.443 83.6687 70.1903 83.6856 70.1016C83.7112 70.2791 84.0411 70.3243 83.9173 70.5621C83.8992 70.5973 83.5453 70.7135 83.7168 70.8065C83.8027 70.8535 84.0329 70.9393 84.0364 71.0371C84.0867 70.95 84.1373 70.854 84.1873 70.7637C84.7061 70.5524 84.8043 70.5886 85.1341 70.5923C85.1028 70.5503 84.7634 70.4534 85.1874 70.3602C85.2093 70.3558 85.2544 70.4202 85.4718 70.3763C85.9105 70.2862 86.006 70.2729 85.7709 70.6055C86.5778 70.1496 86.8548 70.3054 87.6961 69.8711C87.4108 69.6799 87.137 69.877 86.3588 70.2514C86.2986 70.2021 86.2572 70.146 86.1958 70.0963C87.3136 69.8093 86.7857 70.007 87.3298 69.63C87.4633 69.5383 88.2531 69.2364 87.9174 69.171C87.8386 69.1563 87.3596 69.367 87.3866 69.2772C87.3924 69.2607 87.9622 68.9777 88.0206 68.9716C88.7559 68.8949 87.6721 69.5597 89.4096 68.6822C89.4572 68.6575 89.4393 68.5739 89.5293 68.5194C89.6985 68.4169 89.7416 68.5035 89.8912 68.4087C90.041 68.3136 90.2047 68.0921 90.4946 68.086C91.0263 68.0728 90.0508 68.6843 89.5379 68.7902C89.4762 69.1555 92.7631 67.5591 92.9411 67.4114C93.7645 66.8568 92.3402 67.677 92.2269 67.6414C92.1801 67.6274 92.0029 67.2408 91.7586 67.674C91.6859 67.8025 92.1925 67.667 91.9397 67.8457C91.686 68.0243 91.7382 67.8573 91.7144 67.8596C91.633 67.8672 91.3623 68.0539 91.3163 68.0566C90.6144 68.1003 90.4888 67.7104 91.5255 67.8686C91.7992 67.5798 90.9351 67.7682 91.3091 67.4787C91.7622 67.1271 92.2147 67.1109 92.2821 67.086C93.083 66.785 92.0852 66.9891 93.0434 66.5853C93.5767 66.3572 92.3694 67.1602 93.5244 66.52C93.636 66.4575 93.727 66.4046 93.8005 66.3597C94.3591 66.0076 93.9104 66.1465 93.8743 65.9391C93.8649 65.884 94.356 65.5307 93.655 65.9555C93.6607 65.9965 93.6625 66.0491 93.6575 66.1009C93.6557 66.127 93.6511 66.1535 93.6443 66.1781C93.4464 66.2377 93.0129 66.139 92.9142 66.18C92.4322 66.3816 92.5243 66.5036 92.1696 66.4872C92.4543 66.5594 92.0836 66.6198 91.9835 66.7176C91.6099 67.0793 92.2175 66.8367 91.1316 67.1643C91.3027 67.1814 91.461 67.2026 91.6285 67.2203C91.5099 67.2838 91.3911 67.3471 91.2722 67.4099C91.0027 67.3195 90.3757 67.6555 90.864 67.189C90.1446 67.4792 89.8807 67.6499 89.7942 67.8652C89.7778 67.9061 89.6775 67.9667 89.5546 68.0273C89.5968 68.0564 89.6848 68.1659 89.6722 68.1902C89.5591 68.4059 89.1793 68.3008 89.2317 68.1698C89.1428 68.2057 89.0716 68.2323 89.0462 68.2413C88.8858 68.2982 89.1514 68.08 89.014 68.1099C88.9691 68.1202 88.5421 68.3347 88.519 68.3055C88.3725 68.1187 89.1568 67.9554 87.6642 68.4683C87.7125 68.6753 88.3642 68.3382 88.2818 68.6161C88.1925 68.916 87.6861 68.7889 87.7188 69.092C87.6689 69.0613 87.6394 69.0305 87.5913 68.9918C87.0524 69.3606 86.9491 69.1383 86.7489 69.1642C86.361 69.2165 84.7491 69.8747 86.2798 69.4883C86.0755 69.5941 85.862 69.6901 85.6567 69.7911C85.448 69.404 85.6424 69.5205 84.5968 69.8487C84.3661 69.9201 84.2264 69.7679 84.084 70.063C84.037 69.8435 83.4155 70.2132 83.3432 70.2092C82.8862 70.1875 84.2807 69.4229 84.6078 69.7153C84.8023 69.4771 84.8738 69.6671 85.1421 69.5343C85.5289 69.3415 85.5691 69.2836 86.0992 69.2312C86.4868 68.8521 84.2374 69.8686 85.5246 69.0602C86.3981 68.5325 90.2612 66.7339 93.0892 65.0591L93.0757 65.0665C94.4397 64.2565 95.5764 63.5106 96.1207 63.145C99.1287 61.0937 100.62 59.8899 103.135 57.8018C103.389 57.6025 105.193 55.9659 104.978 56.4821C104.949 56.5577 104.226 57.3296 105.027 56.8685C104.815 56.9078 105.16 56.4969 105.185 56.458C105.753 55.5664 105.28 55.9267 106.438 54.8186ZM111.331 52.8141C109.867 54.4238 111.035 53.3225 111.014 53.9087C111.202 53.6982 111.387 53.4864 111.571 53.271C111.506 53.3126 111.441 53.3535 111.374 53.3949C111.374 53.3952 111.374 53.3954 111.374 53.3957C111.361 53.2008 111.346 53.0077 111.331 52.8141ZM100.286 33.3266C100.333 33.2379 100.378 33.1504 100.433 33.0591C100.691 32.9116 100.952 32.769 101.218 32.6324C101.204 32.6787 101.191 32.7247 101.177 32.7711C100.873 32.9476 100.577 33.1312 100.286 33.3266ZM89.2872 68.9639C88.8657 69.0074 88.9979 69.2123 88.4648 69.3288C88.5963 69.4647 88.7333 69.5939 88.8681 69.7261C89.2313 69.5352 89.2882 69.4357 89.71 69.2897C89.6391 69.2596 89.5671 69.2295 89.4974 69.1984C89.4354 69.2402 89.3697 69.2855 89.309 69.325C89.1401 69.227 89.7725 68.9114 89.2883 68.963C89.2879 68.9633 89.2876 68.9636 89.2872 68.9639ZM85.5182 70.6313C85.3082 70.6895 84.4764 70.9101 84.3917 71.0182C84.1063 71.394 86.32 70.389 84.7253 71.228C84.7452 71.2579 84.7495 71.2929 84.7616 71.3253C85.0723 71.2227 85.3808 71.1167 85.6915 71.0065C85.6252 70.8844 85.5868 70.7533 85.5182 70.6313ZM105.832 58.3663C105.574 58.577 104.446 59.7027 104.941 59.4844C105.089 59.4201 105.478 58.7836 105.685 58.612C105.82 58.5007 105.756 58.7236 105.984 58.4599C105.936 58.4294 105.889 58.3905 105.832 58.3671C105.832 58.3669 105.832 58.3666 105.832 58.3663ZM105.813 57.4151C105.575 57.6608 105.336 57.9118 105.093 58.1568C105.375 58.0969 105.683 57.6996 105.838 57.8274C105.777 57.9017 105.718 57.9751 105.658 58.0492C105.575 58.0649 105.493 58.0798 105.411 58.0945C105.261 58.3712 105.431 58.2935 104.995 58.6333C105.443 58.6395 105.602 58.7197 106.103 57.8604C106.079 58.1012 106.562 58.3818 106.696 57.7456C106.721 57.6273 106.386 57.8703 106.375 57.8648C106.234 57.8042 106.342 57.5855 106.204 57.5338C106.141 57.5104 105.958 57.6784 105.875 57.6422C105.835 57.6237 105.933 57.3798 105.813 57.4151ZM106.794 57.4748C106.773 57.6091 107.177 57.5089 107.381 57.2615C107.698 56.8771 107 57.2729 106.794 57.4748ZM100.285 33.3278C100.285 33.3274 100.286 33.327 100.286 33.3266C100.286 33.3269 100.286 33.3272 100.286 33.3276C100.286 33.3276 100.285 33.3277 100.285 33.3278ZM86.5921 70.3099C86.3825 70.4728 86.0269 70.6026 86.0948 70.6983C85.9708 70.7233 85.8457 70.7488 85.7217 70.7731C85.7352 70.8046 85.7499 70.8358 85.7633 70.867C86.1202 70.7506 86.4753 70.6319 86.8307 70.5101C86.7525 70.443 86.6776 70.3742 86.5921 70.3099ZM82.7526 71.6565C82.3046 71.796 82.7268 71.8169 82.6532 71.9208C82.5793 72.0252 82.1618 72.0995 82.2423 72.1859C82.5071 72.103 82.7828 72.0146 83.0499 71.927C82.9419 71.8405 82.8546 71.7445 82.7518 71.6568C82.7521 71.6567 82.7524 71.6566 82.7526 71.6565ZM115.94 45.1596C115.799 45.4572 115.737 45.2924 115.641 45.9423C115.641 45.9418 115.642 45.9414 115.642 45.9409C115.952 45.4057 116.292 44.6743 116.386 43.9878C116.152 44.3553 116.156 44.6879 115.94 45.1596ZM90.4445 68.8098C90.5259 68.6677 89.926 68.865 89.8371 69.0015C89.6929 69.2242 90.3202 69.0276 90.4445 68.8098ZM113.227 33.0918C112.752 33.0191 113.055 33.5942 113.539 34.1394L113.559 34.1612C113.64 34.2422 113.726 34.3226 113.818 34.4007C113.867 34.4407 113.678 34.1341 113.672 34.0547L113.658 34.0394C113.658 34.0253 113.664 34.0184 113.678 34.0222L113.691 34.0363C113.697 34.0376 113.705 34.0408 113.715 34.0463C113.733 34.0546 113.944 34.2993 114.025 34.3366C114.107 34.3731 114.125 34.2471 114.24 34.3267C114.449 34.4672 114.651 34.9794 114.815 35.0843C114.84 35.0982 114.763 34.7474 114.753 34.727C114.618 34.3923 114.274 34.2319 114.241 34.1939C114.06 33.9883 114.181 33.9366 114.156 33.8633C114.137 33.807 114.091 33.7509 114.043 33.704C113.983 33.6392 113.913 33.5879 113.908 33.579C113.797 33.3648 113.939 33.4883 114.103 33.6648L114.094 33.6553C114.238 33.7924 114.393 33.9668 114.448 34.0001C114.767 34.2059 114.668 33.8477 115.236 34.541C115.288 34.6042 115.828 35.484 115.252 34.311C116.578 36.0511 115.397 33.9324 114.55 33.2247L114.583 33.2608C114.44 33.1101 114.323 33.0023 114.269 32.9599C114.113 32.8389 114.226 33.1367 114.106 33.0888C113.836 32.9795 113.495 32.6999 113.406 32.8599C113.221 33.1893 113.786 33.388 113.986 33.7288C113.898 33.7507 113.829 33.7902 113.722 33.7884C113.886 33.7969 113.279 33.0885 113.228 33.0912C113.228 33.0914 113.227 33.0916 113.227 33.0918ZM116.405 38.1251C116.366 38.6798 116.594 38.6186 116.494 39.1284C116.728 39.5603 116.667 38.6841 116.66 38.5794C116.659 38.1061 116.889 38.0798 116.73 37.6033C116.629 37.7966 116.517 37.9534 116.405 38.1251ZM114.552 33.7289C114.888 33.9386 114.446 33.4255 114.439 33.3932C114.432 32.9852 115.706 34.6156 114.552 33.7289ZM103.964 59.3581C103.822 59.4672 103.982 59.4814 103.882 59.6088C103.783 59.7368 103.302 60.0067 103.357 60.0524C103.413 60.0998 104.3 59.6063 103.552 60.2743C103.604 60.2837 103.614 60.3139 103.649 60.3314C103.863 60.1574 104.079 59.9809 104.29 59.8044C104.101 59.814 103.905 59.8201 103.722 59.8272C103.783 59.6585 103.924 59.6932 103.93 59.6879C103.93 59.6878 103.93 59.6877 103.93 59.6876C104.145 59.4963 104.284 59.112 103.964 59.3581ZM113.824 49.1971C113.609 49.0029 113.657 49.5352 113.589 49.7053C113.524 49.8742 113.301 50.0204 113.454 50.011C113.685 49.8169 113.85 49.218 113.823 49.1969C113.824 49.197 113.824 49.197 113.824 49.1971ZM116.462 41.0755C116.481 41.5336 116.566 41.4767 116.397 42.0133C116.468 42.0032 116.541 41.9932 116.612 41.9824C116.68 41.5389 116.48 41.5453 116.614 41.0421C116.634 40.9585 116.779 41.1557 116.759 40.7662C116.666 40.8725 116.562 40.9759 116.462 41.0755ZM116.322 43.344C116.435 42.827 115.978 42.3138 116.009 43.2925C116.011 43.4376 116.233 43.7289 116.322 43.344ZM107.438 56.2202C106.802 56.8038 107.574 56.1939 107.795 56.0978C106.386 57.5381 107.945 55.9275 108.285 55.9865C108.406 55.7556 108.602 55.3001 108.203 55.6237C108.036 55.7584 108.151 55.7644 108.142 55.7732C107.846 56.0325 107.784 55.9001 107.438 56.2202ZM116.206 37.193C116.219 37.225 116.299 37.1495 116.344 37.2513C116.389 37.3538 116.374 37.6093 116.436 37.6215C116.502 37.6352 116.44 37.1338 116.355 36.9965C116.271 36.8596 116.094 36.9061 116.206 37.193ZM116.25 40.5798C116.289 41.0226 116.693 40.3268 116.69 40.2225C116.689 39.363 116.371 40.6221 116.25 40.5798ZM108.439 54.3908C107.848 55.2327 108.565 54.951 109.152 54.623C109.164 54.6152 109.175 54.6088 109.186 54.6025C109.219 54.5136 109.253 54.4233 109.284 54.3359C109.26 54.4412 109.223 54.5589 109.193 54.6603C109.125 54.8842 109.096 55.0269 109.317 54.7855C109.419 54.6723 109.568 54.484 109.781 54.1862C109.165 54.7605 109.604 54.2054 109.597 54.193C109.458 53.9917 109.176 54.2303 108.916 54.3917C108.712 54.5161 108.525 54.5948 108.44 54.3902C108.439 54.3904 108.439 54.3906 108.439 54.3908ZM115.828 35.7653C115.655 35.3078 114.92 34.3008 115.071 34.887C115.341 35.1565 115.594 35.4499 115.828 35.7653ZM95.2543 64.8851C94.8855 64.984 94.5968 65.158 94.2095 65.3909C94.6388 65.3195 94.417 65.4694 94.3168 65.5713C94.1648 65.7253 94.5998 65.4672 94.6061 65.475C94.6721 65.6057 94.4055 65.7906 95.0376 65.4128C94.9072 65.5498 94.7785 65.6854 94.6463 65.8213C95.1352 65.5428 95.2972 65.556 95.6642 65.471C95.219 65.4061 95.7042 65.3237 95.982 64.9851C96.1199 64.8166 95.4417 64.8361 95.2531 64.8858C95.2535 64.8856 95.2539 64.8853 95.2543 64.8851ZM107.643 55.1024C107.603 55.2135 107.582 55.3313 107.549 55.4451C107.473 55.5273 107.396 55.6091 107.319 55.6911C107.277 55.668 107.236 55.6418 107.194 55.6215C107.078 55.7143 107.164 55.72 107.136 55.7548C107.136 55.7546 107.136 55.7544 107.136 55.7542C106.739 56.2501 106.543 56.4205 106.086 56.6523C106.181 56.7546 106.275 56.8569 106.37 56.9592C106.443 56.8739 106.516 56.7878 106.589 56.7024C106.581 56.6073 106.573 56.5119 106.565 56.417C106.687 56.3594 106.808 56.3019 106.929 56.2434C106.986 56.153 107.056 56.0469 107.102 55.9665C107.743 55.8933 106.715 56.5082 106.817 56.6313C106.884 56.7138 107.736 55.8962 107.805 55.7248C107.815 55.7003 107.431 55.6699 107.845 55.4778C107.909 55.4481 108.368 55.8785 108.341 55.19C108.337 55.0923 107.899 54.9783 107.643 55.1024ZM104.395 57.8353C105.156 57.7092 103.04 58.9698 104.05 58.5395C103.942 58.8738 103.982 58.8369 104.319 58.7645C104.348 58.7583 104.222 58.9329 104.24 58.9262C104.514 58.8109 104.741 58.5507 104.851 58.673C104.903 58.6161 104.952 58.5627 105.005 58.5055C104.662 58.5993 104.977 58.1868 105.037 57.9594C105.065 57.8561 104.899 57.9779 104.921 57.8895C104.929 57.8572 105.168 57.6958 105.141 57.6474C105.078 57.5397 104.834 57.5358 104.547 57.6674C104.547 57.6673 104.547 57.6672 104.547 57.6671C104.495 57.7232 104.446 57.779 104.395 57.8353ZM113.726 47.5324C113.972 47.5361 114.241 47.1609 113.934 47.9826C113.993 47.9655 114.052 47.9463 114.111 47.9283C114.176 47.796 114.239 47.6664 114.303 47.5311C114.096 47.1566 114.288 46.8713 114.41 46.7205C114.507 46.5979 114.561 46.5708 114.322 46.6826C114.308 46.6872 114.293 46.6939 114.277 46.7009C114.209 46.7315 114.116 47.066 114.133 46.7019C114.133 46.7022 114.132 46.7026 114.132 46.703C113.973 47.1466 114.015 47.2371 113.726 47.5324ZM112.201 50.3097C111.946 51.4859 113.284 49.1986 112.921 49.4914C112.896 49.5207 112.339 50.514 112.201 50.3097ZM115.309 42.2518C115.208 42.7171 115.441 42.8043 115.541 42.7763C115.642 42.7478 115.622 42.3975 115.643 42.3576C115.717 42.2266 115.689 42.5303 115.788 42.3602C115.827 42.3064 116.053 41.47 116.041 41.4275C116.008 41.2028 115.762 41.4932 115.747 41.4277C115.696 41.2195 115.83 40.9618 115.725 40.8931C115.503 40.7486 115.7 41.2697 115.69 41.3574C115.668 41.6141 115.539 41.573 115.484 41.7579C115.428 41.9416 115.451 42.0728 115.41 42.2369C115.396 42.2914 115.315 42.2281 115.309 42.2518ZM115.445 43.9383C115.405 43.3957 114.856 44.5252 114.843 44.6725C114.829 45.1288 115.469 44.207 115.445 43.9383ZM106.027 57.1887C106.282 56.7688 105.397 57.4267 105.199 57.6744C105.281 57.6798 105.94 57.3343 106.027 57.1887ZM108.641 54.1874C108.477 54.391 108.637 54.4037 108.847 54.3234C108.984 54.2697 109.14 54.1759 109.239 54.0692C109.236 53.7745 109.128 53.9481 108.96 54.1122C108.799 54.2676 108.843 53.9588 108.669 54.1534C108.662 54.1619 108.652 54.1739 108.641 54.1874ZM115.438 37.1331C115.483 37.2057 115.917 38.6285 115.833 37.7776C115.84 37.7081 115.546 36.7042 115.475 36.6462C115.364 36.5187 115.387 36.9081 115.438 37.1331ZM109.81 52.4747C109.795 52.7604 109.643 52.9274 109.938 52.9085C109.938 52.9082 109.938 52.908 109.938 52.9078C109.601 53.3818 109.268 53.1111 109.192 53.2086C108.922 53.5469 109.423 53.4522 109.31 53.7198C109.673 53.19 109.699 53.4619 110.033 53.1097C110.109 53.0301 110.303 52.6224 110.286 52.5251C110.269 52.4281 109.954 52.4457 109.81 52.4747ZM114.596 35.2837C114.782 35.7264 115.237 36.0144 114.956 35.3763C114.806 35.0653 114.474 35.011 114.596 35.2837ZM84.4709 69.95C84.5697 69.9932 84.6707 70.0352 84.775 70.0753C84.6064 70.1588 84.4372 70.2421 84.2679 70.3246C84.3986 70.2508 84.5293 70.1769 84.6606 70.1022C84.322 70.2017 84.1245 70.1288 84.4701 69.9503C84.4703 69.9502 84.4706 69.9501 84.4709 69.95ZM78.6746 69.293C78.8051 69.1786 78.7274 68.8035 78.6954 68.8323C78.4549 69.0498 78.4936 69.4518 78.6746 69.293ZM105.056 57.1495C104.602 57.5126 105.142 57.5205 105.425 57.2989C105.216 57.3934 105.313 56.9423 105.056 57.1495ZM76.7391 72.3085C76.7974 72.3264 76.8561 72.3441 76.9207 72.3603C76.7311 72.3627 76.6931 72.3416 76.7391 72.3085ZM115.185 37.4348C115.184 37.5214 115.283 38.1255 115.324 38.2043C115.423 38.3673 115.549 37.8488 115.42 37.5778C115.408 37.5467 115.192 37.3468 115.185 37.436C115.185 37.4356 115.185 37.4352 115.185 37.4348ZM83.6835 70.0918C83.6856 70.0948 83.6863 70.0981 83.6856 70.1016C83.6851 70.0983 83.6838 70.0952 83.6835 70.0918ZM84.6146 57.5446C84.608 57.5453 84.6021 57.5445 84.5974 57.5418C84.6028 57.5429 84.609 57.5428 84.6146 57.5446ZM114.987 41.7606C114.613 41.9054 114.703 42.3992 114.943 42.0646C114.956 42.0451 114.978 41.81 114.987 41.7606ZM43.9455 99.8236C43.1967 99.625 42.4298 99.434 41.6515 99.2517L41.6221 99.2444C38.7661 98.509 35.7245 98.0443 32.8677 97.8263C32.4232 97.7926 32.4586 97.6951 32.3341 97.6752C31.9931 97.6219 31.7821 97.7331 31.5332 97.7163C31.044 97.6839 30.5666 97.6637 30.0928 97.6518C29.3948 97.6344 28.7068 97.6357 28.0019 97.651C26.7865 97.6879 27.3355 97.3419 26.9052 97.2982C26.0602 97.2269 26.8046 97.5668 26.4903 97.6894C25.5473 97.7606 24.6051 97.857 23.6797 98.0121C23.8945 97.9265 24.1118 97.8448 24.3356 97.7674C23.9303 97.8331 23.3386 97.8972 23.9951 97.6514C23.8394 97.6524 23.6909 97.6484 23.5318 97.6541C23.5183 97.8061 22.8152 97.9879 22.7749 98.0933C22.7342 98.1945 23.1204 98.0742 23.1206 98.0831C23.1166 98.1795 21.4901 98.5001 21.3797 98.5484C21.0734 98.6251 21.2696 98.3564 21.0203 98.4623C20.594 98.6517 21.0273 98.8763 20.2552 98.6647C20.0941 98.9146 20.04 98.8456 19.7515 98.9743C19.7138 98.9915 19.7843 99.0611 19.7692 99.0714C19.3807 99.3475 19.6238 99.0273 19.6177 99.0198C19.5053 98.8941 19.0828 99.2021 18.9846 99.2448C18.6691 99.3726 18.3796 99.5058 18.106 99.6482C17.2641 100.095 16.5317 100.564 15.7502 101.348C15.515 101.569 14.976 102.366 14.8073 102.615C14.6285 102.856 14.6127 102.659 14.4844 102.769C14.6029 103.133 14.5184 103.328 14.1504 103.789C14.2751 104.053 14.1207 103.971 14.0591 104.366C14.0055 104.703 14.1784 105.268 13.9777 105.616C14.0061 105.208 13.8991 105.247 13.9042 104.77C13.9051 104.691 13.9789 104.247 14.0924 103.842C14.1999 103.436 14.3339 103.065 14.212 103.075C14.0789 103.085 13.9458 103.654 13.9263 103.668C13.7729 103.752 13.7461 103.392 13.916 103.145C13.9073 103.22 13.894 103.31 13.8863 103.39C14.2791 102.864 13.5938 103.015 14.2507 102.8C14.3319 102.776 14.3752 102.826 14.4781 102.772C14.4652 102.742 14.3496 102.814 14.3902 102.718C14.4315 102.62 14.641 102.515 14.5685 102.435C14.4626 102.314 14.2855 102.725 14.2649 102.752C14.2656 102.752 14.2662 102.753 14.2668 102.754C14.054 102.974 14.3447 102.429 14.3541 102.398C14.3763 102.185 14.2419 102.256 14.3408 101.967C14.3977 101.799 14.6771 101.469 14.7676 101.339C14.856 101.207 14.645 101.352 14.7003 101.26C14.7564 101.167 14.8834 101.1 14.9525 100.995C14.982 100.949 14.9206 100.898 14.9358 100.877C15.0997 100.649 15.1 100.895 15.2631 100.706C15.3665 100.583 15.6505 100.089 15.3473 100.322C15.4663 100.181 15.5867 100.05 15.712 99.9185C15.6127 99.9769 15.513 100.048 15.4135 100.105C15.6876 99.8956 15.7133 99.6915 15.8685 99.5424C16.0268 99.3919 16.2786 99.3962 16.4104 99.1887C16.6985 98.7396 15.7725 99.5837 15.6433 99.677C15.5892 99.7092 15.68 99.4555 15.7052 99.4294C15.817 99.3102 16.0213 99.2589 16.1145 99.1774C16.4463 98.8876 16.5874 98.6287 16.9142 98.3631C16.9762 98.3131 17.0397 98.2626 17.1048 98.2116C18.2314 97.3172 19.7649 96.5545 20.9822 96.1354C21.4631 95.9669 21.7949 96.0171 22.0097 95.9535C22.5166 95.808 22.5505 95.6787 22.9976 95.5696C23.6645 95.4066 24.6235 95.3489 25.1823 95.2981C25.5682 95.2607 25.9045 95.1078 26.005 95.0941C27.3396 94.9048 28.9498 94.844 30.0928 94.8466C30.1438 94.8466 30.1939 94.8466 30.2431 94.8467C30.7828 94.8481 31.0362 94.9846 31.1471 94.9828C31.6249 94.9784 31.5002 94.8645 31.8878 94.8891C32.0971 94.9029 32.1318 95.0111 32.1595 95.0163C32.4041 95.0621 32.4597 94.9262 32.6526 94.9316C33.7618 94.9646 34.8188 95.1484 35.9042 95.2936C35.983 95.3043 35.9685 95.3644 36.0199 95.3676C36.2409 95.3802 36.1513 95.2712 36.3816 95.2941C36.8608 95.3421 37.3478 95.4296 37.849 95.5238C37.8987 95.5331 37.9083 95.6147 38.0221 95.6337C38.136 95.6528 38.235 95.5935 38.4132 95.6289C38.8791 95.7217 39.3219 95.8969 39.8117 96.0027C39.8927 96.0201 40.0129 95.948 40.1347 95.9749C40.5172 96.0587 41.0621 96.2715 41.386 96.3533C41.7024 96.4324 42.0117 96.5073 42.3167 96.5814L42.2916 96.5751C43.0137 96.735 43.7121 96.8831 44.4123 97.0676C44.6458 97.1293 44.8294 97.2701 44.9499 97.305C45.2218 97.3836 45.0377 97.247 45.3144 97.3226C47.5749 97.9427 49.8076 98.6898 52.0395 99.4876C52.6419 99.7028 53.3454 99.9209 53.9954 100.153L53.5168 100.064C53.5596 100.063 53.6023 100.062 53.6448 100.061L56.7786 100.129L54.6088 102.31C54.4251 102.511 54.2428 102.701 54.0651 102.872C53.7904 103.136 53.6597 103.102 53.4681 103.29C53.1249 103.623 53.1646 103.79 52.805 104.148C52.5172 104.433 52.0751 104.635 51.7665 104.919C51.457 105.202 51.4036 105.437 51.0432 105.762C50.7463 106.029 50.2726 106.329 49.937 106.604C47.6929 108.447 45.2588 110.029 42.6431 111.286L42.6742 111.271C41.7027 111.767 40.6959 112.201 39.6608 112.567C38.3105 113.047 36.7877 113.527 35.3214 113.709C35.1839 113.726 35.3599 113.547 34.935 113.668C34.7075 113.732 34.4066 113.918 33.8667 114.02C31.7854 114.413 29.5739 114.492 27.4048 114.432C26.2278 114.4 25.052 114.331 23.8883 114.229C21.3147 113.991 18.4865 113.695 16.0515 112.082L16.0608 112.089C14.0205 110.85 12.125 108.153 12.8603 105.745C12.9285 105.511 13.275 105.643 13.3764 105.764C13.3094 105.883 13.2324 105.999 13.1653 106.135C13.6174 106.251 13.4771 106.228 13.5579 106.797C13.6206 107.144 13.7299 106.826 13.8284 106.988C13.9324 107.216 14.5847 108.071 14.2481 108.02C14.3242 108.057 14.3958 108.087 14.4706 108.118C14.9006 108.765 15.4631 109.282 16.0788 109.719C16.1855 109.794 16.2497 109.73 16.3597 109.804C16.6582 110.002 16.8488 110.221 17.1595 110.428C17.1719 110.436 17.1839 110.443 17.1956 110.45C17.3413 110.53 17.4244 110.481 17.6216 110.614C17.8358 110.754 17.7622 110.876 18.1461 110.913C18.0257 110.654 18.8692 111.238 19.223 111.355C19.2737 111.376 19.7346 111.385 19.9473 111.475C20.1588 111.567 20.4695 111.771 20.8365 111.811C21.007 111.829 21.139 111.735 21.3167 111.771C21.4433 111.797 21.568 111.938 21.7292 111.977C21.888 112.017 22.2546 111.996 22.3186 112.005C22.552 112.041 22.282 112.071 22.4403 112.103C23.2025 112.257 24.1069 112.403 24.8862 112.407C24.9825 112.408 24.8566 112.308 24.8697 112.306C25.5209 112.239 25.1696 112.333 25.3399 112.425C25.5019 112.52 26.7552 112.518 26.7639 112.356C26.7988 112.554 27.0791 112.407 27.15 112.401C27.292 112.391 27.3483 112.429 27.4048 112.463C27.4594 112.495 27.5144 112.524 27.6483 112.497C27.7479 112.477 27.5532 112.363 27.6602 112.366C27.9234 112.372 28.1654 112.554 28.5195 112.563C28.6051 112.565 28.6304 112.482 28.7815 112.479C28.9328 112.478 29.5724 112.547 29.2712 112.388C29.6629 112.507 29.7362 112.427 30.1831 112.399C30.2957 112.391 30.4528 112.513 30.6902 112.45C30.7705 112.429 30.756 112.302 30.8782 112.289C31.1569 112.26 31.4342 112.364 31.789 112.327C32.4538 112.256 33.1408 112.057 33.8277 111.961C34.0147 111.935 33.9922 112.071 34.2635 112.02C34.3036 112.012 34.6047 111.836 34.7919 111.805C34.9044 111.788 35.4985 111.729 35.6164 111.704C35.8109 111.666 35.8132 111.536 35.9239 111.532C36.2435 111.52 36.0509 111.762 36.3466 111.421C36.5034 111.522 36.7112 111.447 36.8275 111.592C36.8979 111.375 37.1093 111.5 37.3292 111.365C37.5497 111.23 37.6261 110.821 37.8075 111.173C37.9036 111.092 38.3433 110.852 38.4186 110.817C38.6432 110.717 38.5576 110.864 38.7265 110.785C38.7561 110.771 38.6984 110.715 38.8962 110.647C39.0282 110.607 39.9601 110.228 40.0176 110.209C40.6927 110.039 39.7049 110.428 39.5956 110.555C39.5633 110.546 39.5312 110.536 39.4973 110.527C39.2025 110.609 39.4251 110.7 39.5686 110.683C39.712 110.667 39.9218 110.497 40.0492 110.502C40.1128 110.504 40.1601 110.703 39.9892 110.75C40.1861 110.733 39.9757 110.893 40.0668 110.918C40.1681 110.948 40.9528 110.618 40.9087 110.513C40.7636 110.577 40.5861 110.661 40.4379 110.722C40.1729 110.628 40.4756 109.782 41.0959 109.77C41.5503 109.756 41.0081 110.2 41.812 109.613C41.8212 109.608 41.8218 109.608 41.8224 109.607C41.8217 109.607 41.821 109.608 41.8203 109.608C41.6747 109.675 41.553 109.717 41.4271 109.771C41.3495 109.649 41.6197 109.69 41.701 109.596C41.7394 109.552 41.3917 109.615 41.6375 109.451C41.672 109.458 41.7037 109.462 41.7333 109.461L41.7454 109.455C41.9908 109.458 42.0944 109.222 42.4312 109.047C42.3428 109.134 42.2534 109.22 42.1638 109.307C42.878 109.112 41.3961 109.919 42.6937 109.353C42.5457 109.437 42.3939 109.513 42.2455 109.598C42.3537 109.629 42.3343 109.887 42.422 109.895C42.6532 109.917 42.879 109.718 43.0962 109.616C43.1912 109.571 43.1615 109.654 43.1695 109.65C43.3 109.589 43.2307 109.526 43.3394 109.462C43.4763 109.382 43.9196 109.237 43.9799 109.191C44.1358 109.076 43.7719 109.08 43.7819 109.06C43.8482 108.927 44.0993 108.866 44.034 108.777C43.5512 109.144 41.9785 109.853 43.2696 108.967C42.8079 109.012 42.8061 108.739 43.3302 108.431C43.7629 108.173 43.5261 108.416 43.8084 108.382C43.8452 108.378 44.4588 108.084 44.4493 107.999C44.5146 108.165 44.7852 108.185 44.7488 108.417C44.7436 108.451 44.495 108.585 44.6533 108.661C44.7327 108.699 44.9359 108.764 44.9635 108.856C44.9811 108.77 44.9966 108.677 45.0129 108.588C45.3678 108.354 45.4544 108.381 45.7165 108.362C45.6807 108.324 45.3872 108.257 45.6978 108.14C45.714 108.135 45.7665 108.192 45.9271 108.135C46.2509 108.02 46.3237 108.001 46.225 108.328C46.745 107.844 47.0077 107.969 47.5611 107.502C47.28 107.346 47.1166 107.549 46.5981 107.955C46.5369 107.914 46.4889 107.864 46.4268 107.822C47.2378 107.474 46.8721 107.696 47.202 107.306C47.283 107.211 47.8291 106.872 47.5427 106.837C47.4756 106.83 47.1527 107.06 47.1494 106.975C47.1494 106.959 47.5239 106.655 47.5687 106.645C48.1342 106.52 47.4563 107.215 48.5973 106.273C48.6284 106.247 48.5898 106.171 48.6462 106.114C48.7521 106.007 48.812 106.083 48.9046 105.985C48.9973 105.886 49.0633 105.67 49.295 105.641C49.7202 105.586 49.1137 106.224 48.7317 106.362C48.787 106.703 50.9735 104.972 51.0728 104.823C51.5719 104.25 50.6653 105.116 50.5624 105.093C50.52 105.085 50.2582 104.75 50.1924 105.163C50.1724 105.285 50.5422 105.119 50.3914 105.303C50.2397 105.487 50.2315 105.331 50.2129 105.335C50.1492 105.348 49.9861 105.541 49.9498 105.547C49.3954 105.645 49.177 105.301 50.0625 105.359C50.1965 105.074 49.555 105.317 49.7695 105.023C50.0284 104.667 50.3895 104.615 50.4366 104.586C50.9931 104.246 50.2469 104.516 50.8987 104.07C51.2609 103.819 50.5305 104.646 51.2696 103.969C51.8826 103.397 51.4786 103.626 51.3734 103.42C51.3488 103.371 51.6413 103.018 51.1991 103.452C51.2253 103.507 51.2523 103.586 51.259 103.652C51.1166 103.723 50.7334 103.672 50.6664 103.717C50.3394 103.939 50.4518 104.041 50.16 104.056C50.4126 104.097 50.1316 104.182 50.0811 104.279C49.8911 104.636 50.3064 104.367 49.531 104.752C49.674 104.754 49.8082 104.76 49.9488 104.762C49.8725 104.83 49.7958 104.897 49.7189 104.963C49.4739 104.904 49.0715 105.258 49.3232 104.796C48.8327 105.116 48.6725 105.292 48.6667 105.495C48.6657 105.534 48.6032 105.597 48.5226 105.662C48.5648 105.685 48.6675 105.779 48.6646 105.802C48.6369 106.008 48.3019 105.941 48.3058 105.817C48.2451 105.857 48.1959 105.887 48.1783 105.897C48.0666 105.961 48.2155 105.741 48.1143 105.779C48.0814 105.791 47.803 106.02 47.7761 105.995C47.6057 105.834 48.1825 105.627 47.1429 106.207C47.2396 106.395 47.6623 106.036 47.6761 106.298C47.6901 106.581 47.2508 106.502 47.3621 106.779C47.3138 106.754 47.2817 106.728 47.2325 106.696C46.9069 107.076 46.7631 106.878 46.6117 106.916C46.3191 106.992 45.2238 107.717 46.329 107.25C46.1961 107.363 46.0531 107.467 45.9179 107.576C45.6496 107.229 45.8339 107.325 45.0982 107.702C44.9356 107.784 44.7868 107.651 44.7515 107.937C44.6579 107.734 44.2667 108.122 44.209 108.123C43.8475 108.131 44.7386 107.324 45.0719 107.576C45.1618 107.34 45.268 107.513 45.4438 107.371C45.6968 107.165 45.7122 107.109 46.1163 107.024C46.3182 106.645 44.8228 107.743 45.6173 106.903C46.4965 106.169 51.4178 101.986 52.3395 100.774C52.4442 100.66 52.5456 100.548 52.6441 100.439L53.6448 102.774C53.6018 102.775 53.5591 102.776 53.5168 102.777L53.0175 102.684C50.7481 101.888 49.3929 101.465 47.1953 100.766C46.9627 100.687 45.1796 100.186 45.6161 100.061C45.6788 100.042 46.4733 100.177 45.8674 99.801C45.9701 99.9483 45.5619 99.9067 45.5261 99.9091C44.7057 99.9583 45.1217 100.139 43.9455 99.8236ZM40.9266 96.8235C42.5062 97.2623 41.375 96.8207 41.7955 96.5442C41.5897 96.4917 41.3843 96.4407 41.1779 96.3909C41.2269 96.4262 41.275 96.4613 41.3238 96.4968C41.3241 96.4968 41.3243 96.4969 41.3245 96.4969C41.1914 96.6053 41.0583 96.7141 40.9266 96.8235ZM14.9707 100.371C14.9828 100.288 14.9964 100.205 15.0149 100.119C15.1898 99.9632 15.3686 99.8131 15.5489 99.6698C15.5506 99.7126 15.5535 99.755 15.5557 99.7977C15.3542 99.9809 15.1594 100.169 14.9707 100.371ZM48.5804 106.541C48.2546 106.614 48.4191 106.793 48.0248 106.942C48.1685 107.057 48.315 107.165 48.4609 107.277C48.6993 107.071 48.7164 106.975 49.0147 106.807C48.9488 106.785 48.8821 106.763 48.817 106.74C48.7791 106.784 48.7392 106.831 48.7017 106.872C48.5378 106.795 48.9556 106.455 48.581 106.541C48.5808 106.541 48.5806 106.541 48.5804 106.541ZM46.0311 108.371C45.8797 108.44 45.2785 108.706 45.2393 108.814C45.1091 109.187 46.6054 108.085 45.5572 108.987C45.5806 109.014 45.593 109.046 45.6109 109.076C45.8312 108.957 46.0489 108.835 46.2674 108.709C46.1826 108.6 46.1177 108.48 46.0311 108.371ZM46.6207 98.2989C46.8571 98.3859 48.0399 98.6238 47.7116 98.3588C47.6146 98.2804 47.0353 98.3413 46.8429 98.2746C46.718 98.2312 46.8951 98.1542 46.632 98.1244C46.6277 98.1799 46.6175 98.24 46.6215 98.2987C46.6212 98.2988 46.621 98.2988 46.6207 98.2989ZM45.9682 98.8593C46.2225 98.9095 46.4817 98.9561 46.7378 99.0078C46.5958 98.8183 46.2113 98.8004 46.2454 98.6039C46.3181 98.6093 46.3901 98.6147 46.4628 98.6203C46.5031 98.6773 46.5425 98.7341 46.5817 98.7909C46.8268 98.751 46.7123 98.6607 47.1031 98.8102C46.9479 98.451 46.9468 98.2806 46.1745 98.3725C46.3498 98.254 46.3739 97.7082 45.8865 97.9635C45.7957 98.0108 46.0817 98.1411 46.0819 98.1529C46.0894 98.2999 45.8996 98.338 45.9126 98.4785C45.9183 98.542 46.0998 98.5932 46.104 98.6804C46.1052 98.7226 45.9015 98.7836 45.9682 98.8593ZM45.6645 98.0387C45.7651 97.9794 45.5538 97.7118 45.3117 97.6871C44.9349 97.6486 45.452 97.9882 45.6645 98.0387ZM14.9698 100.372C14.9701 100.372 14.9704 100.372 14.9707 100.371C14.9707 100.371 14.9706 100.372 14.9706 100.372C14.9703 100.372 14.97 100.372 14.9698 100.372ZM46.7995 107.992C46.6765 108.16 46.4278 108.307 46.5073 108.391C46.4152 108.424 46.3223 108.457 46.2301 108.489C46.2492 108.517 46.2691 108.545 46.288 108.574C46.5414 108.439 46.7929 108.301 47.044 108.161C46.9634 108.105 46.885 108.046 46.7995 107.992ZM44.1064 109.529C43.7879 109.691 44.1251 109.682 44.0925 109.786C44.0596 109.89 43.7488 109.989 43.8329 110.066C44.0215 109.969 44.2175 109.866 44.4069 109.764C44.3004 109.69 44.2081 109.605 44.1058 109.529C44.106 109.529 44.1062 109.529 44.1064 109.529ZM34.3369 95.6399C34.5762 95.6957 34.4656 95.8029 34.9566 95.7129C34.9563 95.7129 34.9559 95.7128 34.9555 95.7128C34.5117 95.5693 33.9297 95.4316 33.4191 95.4904C33.718 95.6367 33.96 95.5538 34.3369 95.6399ZM49.4683 106.307C49.4922 106.17 49.0658 106.4 49.0338 106.532C48.9819 106.748 49.4316 106.516 49.4683 106.307ZM24.6409 96.6861C24.3348 97.0316 25.0523 97.2306 25.7343 97.0059C25.7936 96.9854 25.3281 96.9539 25.455 96.8804C25.4681 96.8728 25.7181 96.8472 25.7761 96.7999C25.8337 96.7524 25.7565 96.6676 25.8549 96.6163C26.0259 96.5261 26.4479 96.6094 26.5736 96.5078C26.5903 96.4939 26.3249 96.3944 26.3086 96.3916C26.0373 96.3434 25.8076 96.5358 25.7668 96.5419C25.5605 96.573 25.5759 96.4425 25.5196 96.4193C25.4145 96.3757 25.2461 96.4561 25.2338 96.4537C24.903 96.3867 25.6275 96.3179 25.7201 96.2624C25.9706 96.1078 25.7084 96.018 26.34 95.8808C26.3986 95.868 27.1285 95.8054 26.1974 95.7522C27.9782 95.2837 25.2656 95.6641 24.983 95.799C24.8525 95.849 25.0743 95.9397 25.0006 96.0061C24.8324 96.1571 24.5201 96.2305 24.5778 96.4007C24.6977 96.7577 25.0675 96.4519 25.3612 96.476C25.3423 96.5602 25.3416 96.6398 25.2978 96.7258C25.3676 96.6069 24.6624 96.6582 24.6407 96.6854C24.6408 96.6856 24.6408 96.6859 24.6409 96.6861ZM29.094 95.8674C29.4951 95.9714 29.4673 95.737 29.8347 95.8684C30.1586 95.6556 29.5189 95.6733 29.4416 95.6637C29.0986 95.6164 29.1009 95.3867 28.7502 95.4677C28.8752 95.5996 28.9774 95.734 29.094 95.8674ZM25.5877 96.0215C25.8427 95.8697 25.3602 95.9321 25.3383 95.913C25.0913 95.6979 26.5499 95.5693 25.5877 96.0215ZM47.9754 99.2029C48.1024 99.2511 48.0542 99.1166 48.1786 99.1204C48.3034 99.1237 48.6645 99.3411 48.6762 99.2706C48.6884 99.1996 48.0258 98.7957 48.7589 98.9872C48.7467 98.9414 48.7639 98.9157 48.7631 98.8776C48.5651 98.8131 48.3652 98.7481 48.1668 98.6849C48.2417 98.8286 48.3169 98.9788 48.3878 99.1176C48.2492 99.1696 48.222 99.0383 48.2161 99.0364C48.216 99.0365 48.216 99.0366 48.216 99.0367C48.0058 98.9803 47.6899 99.0954 47.9754 99.2029ZM37.673 96.2827C37.587 96.5575 37.956 96.2951 38.0934 96.2831C38.2303 96.2706 38.3917 96.4065 38.3455 96.2737C38.1481 96.1522 37.682 96.2515 37.6729 96.283C37.6729 96.2829 37.6729 96.2828 37.673 96.2827ZM31.276 95.8701C31.6141 95.8101 31.5639 95.7338 31.9727 95.8338C31.9595 95.7643 31.9463 95.6933 31.9329 95.6248C31.604 95.6114 31.6212 95.8119 31.2441 95.7215C31.1821 95.7068 31.3194 95.5498 31.0368 95.5952C31.117 95.6821 31.1976 95.7786 31.276 95.8701ZM32.9577 95.686C32.5681 95.6739 32.2348 96.2144 32.9573 96.0034C33.0644 95.9723 33.2499 95.6961 32.9577 95.686ZM44.5702 98.2276C45.1964 98.4142 44.5042 98.1324 44.3613 98.0062C45.8496 98.3379 44.1906 97.9824 44.1146 97.6703C43.9132 97.7012 43.5297 97.7938 43.8916 97.9391C44.0424 97.9999 44.007 97.9029 44.0163 97.9057C44.2985 98.0018 44.2281 98.1266 44.5702 98.2276ZM28.3952 95.9037C28.4199 95.8985 28.3769 95.8038 28.4555 95.7814C28.5349 95.759 28.716 95.8202 28.7317 95.7607C28.7484 95.7003 28.3846 95.6671 28.2761 95.7158C28.1679 95.7645 28.1727 95.9502 28.3952 95.9037ZM30.9154 96.1141C31.2441 96.0509 30.7146 95.6862 30.6417 95.6877C30.0126 95.7004 30.9377 96.0005 30.9154 96.1141ZM42.9554 98.4293C43.7578 98.4475 43.2826 98.0019 42.848 97.7005C42.7755 97.7218 42.7015 97.7428 42.6301 97.7641C42.9725 97.6106 43.5338 97.5121 42.3616 97.4322C42.9636 97.6352 42.4339 97.5699 42.427 97.5817C42.2593 97.9778 43.2122 98.0106 42.9547 98.4292C42.9549 98.4292 42.9551 98.4293 42.9554 98.4293ZM27.3193 95.8619C26.9721 95.8844 26.0831 96.0456 26.5185 96.1897C26.7852 96.077 27.0503 95.968 27.3193 95.8619ZM52.178 102.374C51.9053 102.491 51.7227 102.667 51.4779 102.905C51.8076 102.808 51.6725 102.959 51.622 103.057C51.5452 103.206 51.8218 102.943 51.8295 102.949C51.9246 103.06 51.7628 103.246 52.1651 102.86C52.1006 102.992 52.0368 103.123 51.9703 103.255C52.286 102.968 52.4237 102.967 52.7005 102.862C52.3123 102.84 52.6872 102.728 52.8106 102.406C52.8715 102.246 52.3166 102.317 52.1773 102.375C52.1775 102.375 52.1778 102.375 52.178 102.374ZM43.7238 98.6856C43.8146 98.6562 43.9036 98.6076 43.994 98.5707C44.0776 98.587 44.1611 98.6041 44.2447 98.6206C44.2431 98.6672 44.2393 98.7155 44.2398 98.7609C44.3444 98.8026 44.3187 98.7302 44.3524 98.733C44.3523 98.7333 44.3522 98.7335 44.3522 98.7337C44.8345 98.7768 45.0212 98.8385 45.3427 99.0746C45.3804 98.9405 45.4181 98.8063 45.4559 98.6722C45.3711 98.6622 45.2856 98.6517 45.201 98.6416C45.1377 98.7017 45.0744 98.7619 45.0114 98.8222C44.9286 98.7564 44.8465 98.6913 44.7635 98.6259C44.6811 98.6313 44.5832 98.634 44.5112 98.6418C44.2372 98.1642 45.0216 98.6507 45.0719 98.4979C45.105 98.3982 44.242 98.1687 44.0993 98.2065C44.0788 98.212 44.1907 98.5413 43.9143 98.3123C43.8714 98.2766 44.0118 97.6641 43.5434 98.0679C43.477 98.1253 43.5492 98.5462 43.7238 98.6856ZM46.7644 99.7488C46.4034 99.2193 48.0392 100.162 47.377 99.6135C47.6478 99.5039 47.6076 99.4939 47.4364 99.2701C47.4214 99.2502 47.5877 99.2482 47.5767 99.2381C47.3982 99.0886 47.1365 99.0596 47.1822 98.902C47.1241 98.8935 47.0694 98.8852 47.0113 98.8769C47.1985 99.0947 46.8001 99.0833 46.6211 99.1666C46.5396 99.2041 46.6831 99.2657 46.6139 99.2992C46.5885 99.3112 46.3915 99.2138 46.3677 99.2633C46.3156 99.3757 46.3993 99.5726 46.5932 99.7245C46.5932 99.7247 46.5932 99.7248 46.5931 99.7249C46.6506 99.7336 46.7069 99.7403 46.7644 99.7488ZM36.4912 97.0154C36.4383 96.7844 36.1069 96.6734 36.773 96.6575C36.7471 96.6096 36.72 96.5619 36.6938 96.5141C36.5832 96.5023 36.476 96.4913 36.3636 96.4797C35.9437 97.0816 35.4268 96.2777 35.7608 96.7849C35.7973 96.84 36.0633 96.8166 35.7906 96.9204C35.7909 96.9206 35.7913 96.9208 35.7916 96.9209C36.1534 96.9239 36.2095 96.8524 36.4912 97.0154ZM38.8943 97.2561C39.8043 96.9537 37.8058 96.7883 38.1125 96.9742C38.1399 96.9884 39.0011 97.0451 38.8943 97.2561ZM32.2518 96.875C32.6203 96.9007 32.659 96.6518 32.6265 96.5589C32.5938 96.4659 32.3312 96.5446 32.2988 96.5289C32.1925 96.4766 32.4241 96.4563 32.2863 96.3849C32.2409 96.3606 31.593 96.2456 31.5625 96.2566C31.395 96.3118 31.6306 96.5269 31.5824 96.5493C31.4265 96.6222 31.2207 96.5089 31.1735 96.6184C31.0723 96.8517 31.466 96.6139 31.5322 96.6124C31.7306 96.6075 31.7087 96.7397 31.8555 96.7717C32.002 96.8039 32.1004 96.7626 32.2302 96.7779C32.2734 96.7831 32.2331 96.8733 32.2518 96.875ZM33.511 96.4176C33.1095 96.5791 34.0371 96.856 34.1512 96.8236C34.4927 96.7203 33.7058 96.3386 33.511 96.4176ZM45.7356 98.8168C45.3546 98.852 46.1229 99.1871 46.3658 99.2015C46.3401 99.1337 45.8672 98.8044 45.7356 98.8168ZM42.7451 98.3759C43.0732 98.4137 42.7275 98.0056 42.4596 97.9453C42.255 98.1061 42.4115 98.1023 42.583 98.1533C42.7543 98.2044 42.4892 98.3469 42.7451 98.3759ZM28.2351 96.6388C28.3029 96.6352 29.435 96.4322 28.7791 96.3813C28.7306 96.3755 27.9329 96.4398 27.8748 96.4768C27.7572 96.5473 28.0545 96.6377 28.2351 96.6388ZM41.1449 98.2902C41.3536 98.1591 41.5183 98.2032 41.4147 97.9629C41.4144 97.9629 41.4142 97.9628 41.414 97.9627C41.8108 98.0031 41.7784 98.3467 41.8359 98.4247L41.8486 98.4278C41.8551 98.4363 41.8627 98.4416 41.872 98.4429C42.2 98.4889 41.9669 98.1215 42.1918 98.0735C42.0768 98.0682 41.9987 98.0552 41.942 98.037C41.7533 97.973 41.7988 97.8584 41.5283 97.7799C41.4488 97.7568 41.0997 97.7967 41.0354 97.8596C40.9712 97.9223 41.0806 98.1828 41.1449 98.2902ZM26.6444 96.7932C27.0287 96.8258 27.3566 96.5132 26.8224 96.5114C26.5603 96.512 26.4085 96.7744 26.6444 96.7932ZM45.0258 107.805C45.1147 107.839 45.2051 107.872 45.2977 107.902C45.1868 107.992 45.0753 108.081 44.9635 108.17C45.0472 108.092 45.1308 108.014 45.2147 107.935C44.9741 108.051 44.8004 107.996 45.0252 107.806C45.0254 107.805 45.0256 107.805 45.0258 107.805ZM36.4848 111.61C36.3524 111.572 36.1884 111.849 36.2209 111.858C36.4702 111.926 36.6698 111.662 36.4848 111.61ZM46.0524 99.6171C46.4664 99.771 46.2788 99.3356 46.0248 99.236C46.1646 99.3491 45.8171 99.5302 46.0524 99.6171ZM39.5956 110.555C39.6438 110.569 39.6923 110.583 39.7451 110.595C39.6005 110.608 39.5672 110.59 39.5956 110.555ZM28.428 96.9528C28.4968 96.9771 28.988 96.984 29.055 96.9485C29.1925 96.8723 28.7995 96.6802 28.5748 96.7511C28.5493 96.7586 28.3603 96.9275 28.429 96.9527C28.4287 96.9527 28.4283 96.9528 28.428 96.9528ZM44.4452 107.99C44.4476 107.993 44.4489 107.996 44.4493 107.999C44.4481 107.996 44.4463 107.993 44.4452 107.99ZM26.7604 112.339C26.7629 112.345 26.7643 112.351 26.7639 112.356C26.7629 112.351 26.7609 112.345 26.7604 112.339ZM31.9005 97.2644C32.0495 97.6176 32.432 97.4508 32.1433 97.2654C32.1271 97.2555 31.94 97.2665 31.9005 97.2644Z" fill="#ED6538"/>
</svg>
