<svg xmlns="http://www.w3.org/2000/svg" width="390" height="720" viewBox="0 0 390 720">
    <rect width="390" height="720" fill="#e8e8e8"/>
    <rect x="17" y="10" width="356" height="700" rx="48" fill="#111"/>
    <rect x="25" y="18" width="340" height="684" rx="40" fill="#f7f7f7"/>
    <circle cx="195" cy="34" r="6" fill="#111"/>
    <text x="48" y="48" font-family="Inter, Arial, sans-serif" font-size="14" font-weight="700" fill="#171717" text-anchor="start">9:41</text>
    
    <rect x="25" y="70" width="340" height="632" fill="#ddd"/>
    <rect x="42" y="260" width="306" height="304" rx="28" fill="#fff"/>
    <g transform="translate(68 292) scale(0.92)">
    <rect width="64" height="64" rx="14" fill="#111"/>
    <circle cx="24" cy="27" r="13" fill="#6d28d9"/>
    <text x="24" y="33" font-family="Inter, Arial, sans-serif" font-size="17" font-weight="800" fill="#fff" text-anchor="middle">S</text>
    <circle cx="44" cy="27" r="13" fill="#d9a514"/>
    <text x="44" y="33" font-family="Inter, Arial, sans-serif" font-size="17" font-weight="800" fill="#111" text-anchor="middle">W</text>
    <rect x="12" y="46" width="26" height="6" rx="3" fill="#fff"/>
    <rect x="42" y="46" width="10" height="6" rx="3" fill="#fff" opacity=".4"/>
  </g>
    <text x="146" y="319" font-family="Inter, Arial, sans-serif" font-size="21" font-weight="800" fill="#171717" text-anchor="start">Install Sub-Wait?</text>
    <text x="146" y="344" font-family="Inter, Arial, sans-serif" font-size="13" font-weight="500" fill="#666" text-anchor="start">Live NYC subway arrivals</text>
    <text x="68" y="398" font-family="Inter, Arial, sans-serif" font-size="14" font-weight="500" fill="#555" text-anchor="start">This app will be added to your</text>
    <text x="68" y="420" font-family="Inter, Arial, sans-serif" font-size="14" font-weight="500" fill="#555" text-anchor="start">home screen.</text>
    <text x="204" y="515" font-family="Inter, Arial, sans-serif" font-size="15" font-weight="700" fill="#555" text-anchor="middle">Cancel</text>
    <rect x="246" y="480" width="82" height="48" rx="24" fill="#111"/>
    <text x="287" y="510" font-family="Inter, Arial, sans-serif" font-size="15" font-weight="700" fill="#fff" text-anchor="middle">Install</text>
    <circle cx="326" cy="458" r="27" fill="#111" stroke="#ff6319" stroke-width="7"/>
    <text x="326" y="465" font-family="Inter, Arial, sans-serif" font-size="21" font-weight="800" fill="#fff" text-anchor="middle">3</text>
  
  </svg>